<?xml version="1.0" standalone="no"?>
<!DOCTYPE svg PUBLIC "-//W3C//DTD SVG 20010904//EN"
 "http://www.w3.org/TR/2001/REC-SVG-20010904/DTD/svg10.dtd">
<svg version="1.0" xmlns="http://www.w3.org/2000/svg"
 width="200.000000pt" height="200.000000pt" viewBox="0 0 200.000000 200.000000"
 preserveAspectRatio="xMidYMid meet">

<g transform="translate(0.000000,200.000000) scale(0.100000,-0.100000)"
fill="#000000" stroke="none">
<path d="M1282 1931 c4 -13 18 -16 19 -4 0 4 -5 9 -11 12 -7 2 -11 -2 -8 -8z"/>
<path d="M1057 1914 c4 -11 8 -12 13 -4 6 9 9 9 13 -1 4 -10 6 -9 6 4 1 11 -6
17 -19 17 -14 0 -18 -5 -13 -16z"/>
<path d="M954 1905 c-9 -22 7 -41 18 -21 11 20 32 21 24 1 -6 -16 2 -45 13
-45 3 0 12 9 19 21 12 18 10 23 -9 40 -26 23 -57 25 -65 4z"/>
<path d="M1112 1894 c-22 -24 -5 -33 62 -31 54 2 70 -2 112 -28 58 -37 94 -93
94 -151 0 -28 6 -47 20 -59 25 -23 25 -31 -1 -38 l-20 -6 20 -20 c26 -26 26
-43 3 -64 -25 -23 -38 -21 -56 5 -13 18 -16 19 -16 5 0 -16 -1 -16 -18 1 -13
12 -14 18 -5 20 7 2 13 16 13 32 l0 28 -34 -16 c-23 -10 -33 -20 -29 -31 4
-13 3 -13 -5 -2 -6 8 -18 11 -30 7 -21 -7 -69 16 -85 41 -4 7 -17 13 -27 13
-10 0 -22 5 -25 10 -4 6 -11 8 -16 5 -5 -4 -9 1 -9 10 0 9 -4 13 -10 10 -5 -3
-15 -3 -21 1 -8 4 -7 9 2 15 8 5 13 21 11 38 -3 23 6 39 35 72 21 24 32 39 26
35 -7 -4 -13 -5 -13 -2 0 8 57 36 72 36 9 0 9 -3 -2 -11 -12 -9 -12 -10 3 -5
10 3 25 6 33 6 8 0 14 7 14 15 0 11 -12 15 -47 15 -41 0 -50 -4 -87 -42 -22
-24 -37 -38 -33 -31 12 19 -12 26 -29 9 -20 -20 -44 -21 -44 -1 0 8 -4 15 -10
15 -5 0 -10 -7 -10 -15 0 -27 -17 -16 -27 18 -6 22 -15 31 -28 30 -10 -1 -32
9 -48 23 -16 13 -36 24 -45 24 -11 0 -7 -7 13 -19 28 -17 93 -82 69 -68 -8 5
-13 -13 -16 -55 -4 -52 -9 -65 -33 -86 -24 -20 -36 -23 -77 -20 -82 8 -131 75
-111 150 8 28 7 38 -1 35 -6 -2 -19 0 -29 5 -24 12 -41 0 -26 -18 10 -12 4
-14 -36 -14 -27 0 -45 -3 -41 -7 7 -8 11 -9 37 -12 7 -1 9 -16 5 -43 -4 -24
-7 -54 -8 -68 -1 -14 -7 -28 -13 -32 -17 -13 -35 -9 -35 7 0 8 -10 21 -22 29
-31 19 -78 29 -78 16 0 -5 6 -10 14 -10 23 0 76 -34 76 -48 0 -10 -5 -10 -21
-2 -30 17 -34 6 -4 -14 33 -22 33 -54 0 -62 -33 -8 -32 -20 3 -32 26 -10 27
-11 5 -17 -13 -4 -20 -11 -17 -16 3 -5 -5 -8 -17 -6 -12 1 -24 -3 -26 -9 -5
-14 35 -26 42 -13 7 10 107 10 125 -1 10 -6 8 -10 -7 -18 -14 -8 -23 -8 -30
-1 -7 7 -10 2 -11 -16 0 -14 -8 -35 -17 -45 -10 -11 -15 -20 -11 -20 5 0 -16
-28 -45 -62 -29 -35 -55 -65 -57 -68 -2 -3 -15 8 -28 23 -28 33 -31 74 -6 93
15 12 12 13 -24 14 -57 0 -63 -20 -27 -92 39 -80 58 -78 148 12 58 58 75 70
100 68 l30 -1 -32 -4 c-24 -3 -46 -21 -94 -74 -52 -59 -67 -69 -94 -69 -32 0
-34 -2 -45 -52 -19 -84 -20 -86 -56 -134 -34 -44 -34 -47 -19 -70 10 -16 29
-26 56 -30 47 -8 60 -28 52 -77 -5 -33 -3 -38 21 -47 20 -7 26 -16 26 -39 0
-21 7 -34 23 -42 28 -15 37 -28 37 -56 0 -13 10 -33 21 -44 17 -17 30 -20 64
-16 55 6 175 61 175 80 0 8 13 20 30 27 35 14 129 80 115 80 -5 0 -4 5 2 11 8
8 19 6 41 -5 16 -8 32 -12 36 -9 3 4 6 -9 6 -27 l0 -33 -21 27 c-11 14 -25 26
-31 26 -6 0 -4 -8 5 -18 10 -10 17 -29 16 -43 l0 -24 -11 23 c-6 12 -15 22
-20 22 -12 0 -10 -9 11 -39 11 -15 34 -63 51 -106 17 -43 49 -109 71 -146 21
-37 43 -79 49 -93 7 -20 16 -26 41 -26 28 0 31 3 27 24 -3 15 0 27 8 30 17 6
24 -3 24 -31 0 -20 5 -23 42 -23 28 0 51 8 73 24 39 30 146 66 196 66 30 0 37
3 33 15 -5 11 1 15 19 15 14 0 29 5 32 10 13 21 -53 100 -82 100 -12 0 -7 -8
17 -30 30 -25 32 -29 15 -30 -30 0 -82 35 -90 62 -4 13 -21 39 -38 57 -16 19
-38 54 -49 78 -10 24 -21 43 -24 43 -2 0 3 -17 12 -37 26 -61 28 -69 17 -58
-21 20 -92 192 -98 237 l-7 46 43 -5 c40 -6 43 -5 31 10 -13 15 -35 16 -117 8
-5 -1 -4 -5 3 -10 9 -5 16 -38 19 -91 5 -63 3 -81 -6 -76 -6 4 -9 16 -6 27 4
13 2 19 -6 17 -15 -4 -27 33 -28 89 -1 23 -5 45 -11 48 -6 4 -6 13 -1 23 5 9
15 31 21 49 7 17 21 40 33 50 20 18 20 17 13 -2 -5 -11 -11 -39 -13 -62 l-5
-42 33 2 c19 2 46 11 62 21 l27 18 -19 32 c-14 23 -17 36 -10 49 9 15 5 17
-37 17 -59 0 -54 6 11 15 27 3 57 13 66 21 13 11 19 12 24 4 4 -7 3 -15 -3
-19 -6 -4 -4 -18 7 -39 16 -31 18 -32 32 -16 11 13 11 18 2 21 -23 8 -15 53
11 64 14 7 28 26 35 49 7 22 20 41 30 45 11 3 22 17 25 31 5 18 12 24 22 20 9
-3 27 -6 40 -6 19 0 28 -9 40 -40 19 -48 35 -47 47 1 4 19 24 48 43 66 39 37
40 40 17 65 -15 17 -15 18 5 18 11 0 24 -5 27 -10 4 -6 11 -8 16 -5 5 4 9 1 9
-5 0 -6 5 -8 11 -5 6 4 -7 20 -30 37 -30 21 -49 28 -73 26 l-33 -3 -3 75 c-2
60 0 77 14 87 9 7 13 17 8 24 -4 7 -7 31 -6 53 2 41 -8 68 -24 67 -5 0 -10 5
-10 12 -1 6 -2 18 -3 25 0 6 -6 12 -12 12 -6 0 -9 -7 -6 -15 4 -8 3 -17 -2
-19 -4 -3 -8 1 -9 9 -1 8 -3 22 -4 30 -1 8 -6 15 -12 15 -7 0 -19 9 -29 21
-13 14 -27 19 -50 17 -31 -3 -32 -5 -31 -45 1 -24 -1 -43 -3 -43 -12 0 -75 74
-78 91 -7 36 -26 49 -71 49 -23 0 -54 4 -68 10 -16 6 -35 6 -49 1 -15 -6 -31
-4 -47 5 -31 17 -32 17 -48 -2z m-482 -139 c0 -29 -21 -33 -44 -9 -24 23 -19
34 14 34 25 0 30 -4 30 -25z m-15 -65 c3 -6 -1 -7 -9 -4 -18 7 -21 14 -7 14 6
0 13 -4 16 -10z m353 -37 c3 -27 0 -33 -16 -33 -27 0 -45 25 -37 50 11 35 49
22 53 -17z m544 5 c-7 -7 -12 -8 -12 -2 0 6 3 14 7 17 3 4 9 5 12 2 2 -3 -1
-11 -7 -17z m-52 -19 c0 -5 -4 -9 -10 -9 -5 0 -10 7 -10 16 0 8 5 12 10 9 6
-3 10 -10 10 -16z m-830 7 c0 -3 -4 -8 -10 -11 -5 -3 -10 -1 -10 4 0 6 5 11
10 11 6 0 10 -2 10 -4z m40 -26 c0 -5 -2 -10 -4 -10 -3 0 -8 5 -11 10 -3 6 -1
10 4 10 6 0 11 -4 11 -10z m62 -52 c-9 -9 -12 -4 -11 23 0 32 1 33 11 11 8
-17 8 -26 0 -34z m225 33 c7 -4 9 -12 4 -20 -10 -16 -45 -1 -55 24 -5 13 -1
15 17 9 12 -3 27 -9 34 -13z m-336 -21 c10 -6 19 -20 19 -31 0 -17 3 -18 20
-9 23 12 40 6 40 -15 0 -8 -7 -11 -19 -8 -28 7 -36 -16 -9 -27 22 -10 22 -10
-4 -7 -20 3 -28 0 -30 -12 -1 -9 -4 9 -7 39 -6 52 -7 55 -31 51 -56 -10 -84
-6 -88 12 -3 14 4 17 43 17 25 0 55 -5 66 -10z m249 -4 c0 -2 -13 -9 -30 -15
-16 -5 -30 -6 -30 -1 0 5 8 11 18 13 24 7 42 8 42 3z m236 -20 c23 -24 25 -23
-90 -32 -48 -4 -66 -3 -62 5 4 6 27 11 52 11 30 0 46 5 50 15 8 19 31 19 50 1z
m-186 -41 c16 -19 0 -19 -26 0 -16 12 -16 14 -3 15 9 0 22 -7 29 -15z m372
-30 c7 -17 19 -25 35 -25 15 0 23 -5 21 -12 -6 -18 -89 -23 -99 -6 -6 8 -9 2
-9 -19 l0 -33 -55 0 c-48 0 -57 3 -65 23 -8 21 -9 20 -9 -7 -1 -22 -4 -27 -12
-19 -8 8 -8 17 0 32 9 16 21 21 55 21 43 0 101 21 90 33 -11 10 5 37 21 37 8
0 21 -11 27 -25z m-424 -28 c54 -55 54 -80 2 -137 -38 -41 -41 -43 -83 -37
-43 6 -44 6 -39 -19 4 -21 1 -25 -14 -22 -13 2 -19 12 -19 30 -1 14 -7 33 -13
41 -12 14 -35 124 -25 113 3 -2 21 13 41 34 53 56 93 55 150 -3z m529 -3 c8
-21 -13 -42 -28 -27 -13 13 -5 43 11 43 6 0 13 -7 17 -16z m-404 -20 c8 -9
-11 -44 -23 -44 -6 0 -10 11 -10 25 0 23 18 34 33 19z m75 -1 c-10 -2 -26 -2
-35 0 -10 3 -2 5 17 5 19 0 27 -2 18 -5z m10 -55 c7 -7 12 -21 12 -31 0 -14
-4 -17 -17 -12 -10 4 -30 12 -45 17 -28 10 -34 19 -21 31 11 11 58 8 71 -5z
m-1 -92 c19 -20 34 -48 34 -63 3 -52 0 -76 -12 -87 -8 -8 -9 1 -4 35 15 99
-72 170 -166 137 -59 -20 -98 -107 -70 -154 9 -16 10 -13 5 13 -9 48 2 75 40
101 44 30 108 32 145 5 22 -17 26 -29 29 -77 3 -51 0 -59 -26 -86 -55 -54
-126 -52 -183 6 -29 30 -34 42 -34 83 0 127 155 182 242 87z m295 22 c28 -32
35 -48 20 -48 -4 0 -13 5 -20 12 -9 9 -12 4 -12 -25 0 -26 -6 -39 -19 -47 -24
-13 -41 -13 -21 0 12 8 11 13 -10 32 -14 13 -28 22 -32 21 -5 -2 -8 2 -8 7 0
6 7 10 16 10 13 0 15 8 12 35 -4 32 -2 35 21 35 15 0 35 -12 53 -32z m-136
-55 c4 -21 11 -43 16 -50 5 -7 5 -14 -1 -17 -15 -10 -41 35 -41 71 0 45 18 42
26 -4z m-640 -12 c-3 -5 -19 -11 -36 -13 -36 -5 -27 8 10 15 14 2 26 5 28 6 2
0 1 -3 -2 -8z m81 -25 c-3 -8 -3 -17 1 -20 3 -4 7 -16 9 -28 2 -12 8 -27 13
-33 5 -7 7 -15 3 -18 -3 -4 3 -10 13 -14 10 -3 22 -11 25 -16 11 -15 -8 -65
-36 -99 -21 -24 -26 -40 -24 -72 4 -76 -30 -127 -75 -110 -9 3 -16 1 -16 -5 0
-15 42 -14 62 2 9 6 33 32 52 55 20 24 36 41 36 37 0 -4 -21 -31 -46 -61 -43
-50 -49 -54 -91 -54 -36 0 -44 3 -40 15 4 8 2 17 -3 20 -15 9 -12 48 6 73 18
26 60 29 86 5 17 -15 18 -14 18 29 0 35 6 50 25 68 30 28 34 51 4 24 -18 -16
-34 -19 -111 -15 -64 2 -89 0 -84 -8 4 -6 13 -11 21 -11 29 0 24 -20 -7 -28
-54 -14 -126 41 -103 79 4 6 13 8 21 5 14 -5 13 13 -1 60 -5 15 52 11 68 -5 9
-9 8 -14 -3 -21 -24 -16 40 -11 75 5 l30 13 -27 1 c-34 1 -39 31 -6 31 20 0
20 1 5 13 -21 16 -16 65 8 84 26 18 99 18 92 -1z m141 -11 c-3 -3 -9 2 -12 12
-6 14 -5 15 5 6 7 -7 10 -15 7 -18z m417 -75 c10 -11 16 -20 13 -20 -3 0 -13
9 -23 20 -10 11 -16 20 -13 20 3 0 13 -9 23 -20z m-62 -7 c-7 -2 -21 -2 -30 0
-10 3 -4 5 12 5 17 0 24 -2 18 -5z m-356 -75 c-3 -8 -6 -5 -6 6 -1 11 2 17 5
13 3 -3 4 -12 1 -19z m240 -90 c-2 -24 -4 -7 -4 37 0 44 2 63 4 43 2 -21 2
-57 0 -80z m-109 76 c2 -13 -4 -24 -15 -28 -14 -6 -16 -5 -5 5 17 18 15 37 -5
43 -14 4 -14 4 2 3 12 -1 21 -11 23 -23z m322 -1 c0 -38 -10 -73 -21 -73 -10
0 -12 44 -3 78 9 31 24 28 24 -5z m-275 -23 c3 -5 1 -10 -4 -10 -6 0 -11 5
-11 10 0 6 2 10 4 10 3 0 8 -4 11 -10z m-111 -17 c4 -9 0 -23 -9 -32 -13 -13
-19 -13 -35 -3 -26 16 -26 5 1 -16 24 -21 17 -49 -16 -62 -20 -8 -145 -149
-145 -164 0 -28 72 29 76 61 2 9 16 28 33 44 29 26 31 26 31 7 0 -25 -37 -78
-55 -78 -7 0 -20 -12 -29 -26 -12 -17 -25 -24 -39 -22 -34 5 -31 30 9 76 20
24 34 45 31 48 -3 3 -20 -13 -38 -35 -20 -25 -40 -41 -53 -40 -21 0 -21 0 -1
8 11 5 41 31 68 59 26 28 47 47 47 41 0 -6 5 -7 10 -4 6 4 8 10 6 14 -10 16
20 116 34 116 8 0 19 6 23 13 12 18 44 15 51 -5z m-278 -24 c3 -6 0 -17 -8
-25 -13 -13 -16 -13 -28 1 -12 14 -11 18 1 26 19 12 26 11 35 -2z m121 -31
c-3 -7 -5 -2 -5 12 0 14 2 19 5 13 2 -7 2 -19 0 -25z m-225 -28 c-3 -11 0 -11
12 -1 8 7 23 11 32 9 15 -3 13 -7 -10 -34 -14 -18 -26 -37 -26 -43 0 -6 -9
-11 -20 -11 -23 0 -24 3 -7 30 10 17 9 22 -2 29 -9 6 -10 11 -2 15 6 4 8 12 5
18 -4 6 -1 8 7 6 8 -3 13 -11 11 -18z m504 -11 c43 -26 49 -57 7 -35 -16 7
-47 17 -70 21 -24 4 -43 10 -43 14 0 28 61 28 106 0z m-68 -59 c11 -18 10 -20
-13 -20 -27 0 -28 1 -19 24 8 21 17 20 32 -4z m-404 -51 c-8 -14 -34 -11 -34
4 0 8 3 17 7 20 9 9 34 -13 27 -24z m69 -36 c-13 -2 -33 -2 -45 0 -13 2 -3 4
22 4 25 0 35 -2 23 -4z m42 -43 c17 -7 15 -9 -12 -9 -18 -1 -33 4 -33 9 0 12
17 12 45 0z m442 -47 c-3 -10 -5 -2 -5 17 0 19 2 27 5 18 2 -10 2 -26 0 -35z
m-95 -52 c6 -9 -1 -3 -16 12 -14 15 -26 38 -26 50 1 17 4 15 16 -12 8 -19 19
-42 26 -50z m78 -116 c32 -61 29 -59 -26 24 -43 66 -50 79 -26 56 11 -11 34
-47 52 -80z m339 -25 c0 -3 -6 -14 -14 -24 -12 -16 -17 -17 -30 -6 -8 7 -15
18 -15 25 0 7 -7 18 -15 25 -30 25 -14 29 30 7 24 -12 44 -24 44 -27z"/>
<path d="M811 1333 c7 -10 14 -19 15 -21 1 -1 9 0 18 4 15 6 15 7 -1 20 -10 7
-24 14 -32 14 -11 0 -11 -3 0 -17z"/>
<path d="M614 1159 c-3 -6 -15 -9 -25 -6 -11 3 -17 1 -13 -4 8 -14 30 -11 44
6 7 8 10 15 7 15 -3 0 -9 -5 -13 -11z"/>
<path d="M655 1030 c-10 -11 -13 -20 -7 -20 6 0 16 9 22 20 6 11 9 20 7 20 -2
0 -12 -9 -22 -20z"/>
<path d="M675 1850 c-3 -6 1 -7 9 -4 18 7 21 14 7 14 -6 0 -13 -4 -16 -10z"/>
<path d="M780 1850 c12 -9 7 -11 -22 -6 -31 4 -44 0 -68 -20 -33 -28 -48 -82
-31 -111 8 -15 10 -10 11 25 0 33 6 50 28 73 24 26 31 28 59 20 21 -6 33 -6
35 1 3 7 12 7 28 -2 22 -11 23 -11 10 3 -8 8 -26 18 -40 22 -20 5 -22 4 -10
-5z"/>
<path d="M445 1770 c3 -5 8 -10 11 -10 2 0 4 5 4 10 0 6 -5 10 -11 10 -5 0 -7
-4 -4 -10z"/>
<path d="M1120 1741 c-33 -31 -40 -44 -35 -62 5 -13 2 -25 -6 -31 -11 -8 -10
-9 3 -4 10 3 20 1 23 -4 4 -6 11 -10 16 -10 6 0 3 7 -5 16 -9 8 -16 21 -16 27
0 20 36 68 66 88 21 13 24 19 12 19 -9 0 -36 -18 -58 -39z"/>
<path d="M1224 1766 c11 -9 25 -16 30 -17 46 -3 49 -5 68 -43 l15 -29 5 25 c6
31 -41 66 -98 74 -37 5 -38 4 -20 -10z"/>
<path d="M1065 1709 c-4 -6 -5 -12 -2 -15 2 -3 7 2 10 11 7 17 1 20 -8 4z"/>
<path d="M1308 1674 c3 -22 -1 -41 -11 -52 -12 -13 -13 -22 -6 -32 9 -13 10
-13 6 0 -2 8 4 25 13 37 10 13 15 33 12 48 -7 39 -18 38 -14 -1z"/>
<path d="M1215 1670 c-8 -14 3 -30 21 -30 8 0 14 9 14 20 0 21 -24 28 -35 10z"/>
<path d="M340 1660 c0 -5 7 -10 16 -10 8 0 12 5 9 10 -3 6 -10 10 -16 10 -5 0
-9 -4 -9 -10z"/>
<path d="M1337 1619 c-7 -25 17 -37 38 -19 12 10 13 16 4 26 -17 20 -36 17
-42 -7z"/>
<path d="M293 1475 c0 -22 2 -30 4 -17 2 12 2 30 0 40 -3 9 -5 -1 -4 -23z"/>
<path d="M429 1410 c-3 -17 -12 -26 -26 -28 -29 -4 -29 -13 3 -36 25 -18 26
-18 44 2 16 17 17 22 5 32 -8 6 -15 21 -18 33 -3 21 -4 20 -8 -3z"/>
<path d="M380 1310 c-13 -8 -12 -10 3 -10 9 0 17 5 17 10 0 12 -1 12 -20 0z"/>
<path d="M1775 1300 c-3 -5 -19 -10 -35 -10 -16 0 -31 -4 -34 -8 -8 -14 63 0
75 14 6 8 9 14 6 14 -3 0 -9 -4 -12 -10z"/>
<path d="M1832 1088 c-15 -15 -16 -58 -2 -58 6 0 10 5 10 10 0 6 6 10 14 10
22 0 30 19 16 35 -15 18 -22 19 -38 3z"/>
<path d="M1365 970 c3 -5 8 -10 11 -10 2 0 4 5 4 10 0 6 -5 10 -11 10 -5 0 -7
-4 -4 -10z"/>
<path d="M1350 895 c-7 -8 -23 -15 -36 -15 -17 0 -24 -6 -24 -19 0 -11 5 -23
10 -26 6 -4 17 -21 24 -38 14 -31 14 -31 16 -7 1 14 2 34 1 46 -1 11 7 28 19
39 11 10 20 22 20 27 0 13 -16 9 -30 -7z"/>
<path d="M1806 458 c-8 -13 -19 -43 -25 -67 -11 -49 -26 -64 -56 -56 -80 22
-160 34 -220 33 l-70 -1 79 -8 c44 -5 83 -12 87 -16 4 -4 -25 -9 -64 -11 -40
-2 -76 -8 -82 -13 -5 -5 90 -9 249 -9 l259 0 -6 46 c-5 51 -34 89 -84 110 -43
19 -50 18 -67 -8z"/>
<path d="M1356 345 c-55 -19 -72 -40 -26 -31 18 3 37 11 40 16 3 5 17 13 30
19 38 15 0 12 -44 -4z"/>
<path d="M560 226 c0 -2 7 -7 16 -10 8 -3 12 -2 9 4 -6 10 -25 14 -25 6z"/>
<path d="M180 162 c0 -34 3 -62 8 -62 8 0 5 110 -3 118 -3 3 -5 -22 -5 -56z"/>
<path d="M290 162 c0 -34 3 -62 8 -62 8 0 5 110 -3 119 -3 2 -5 -23 -5 -57z"/>
<path d="M347 201 c2 -10 -2 -25 -10 -32 -12 -12 -11 -17 6 -41 12 -16 25 -28
30 -28 4 0 -1 12 -13 27 -14 18 -17 30 -10 37 12 12 13 43 1 50 -5 4 -7 -2 -4
-13z"/>
<path d="M420 160 c0 -33 4 -60 10 -60 6 0 10 27 10 60 0 33 -4 60 -10 60 -6
0 -10 -27 -10 -60z"/>
<path d="M500 201 c-15 -30 -12 -66 8 -84 26 -24 36 -21 12 3 -24 24 -26 63
-4 84 8 9 11 16 5 16 -6 0 -15 -9 -21 -19z"/>
<path d="M720 160 c0 -35 3 -61 6 -58 7 8 7 108 0 115 -3 4 -6 -22 -6 -57z"/>
<path d="M807 196 c4 -19 0 -25 -18 -29 l-24 -4 24 -2 c20 -1 23 -5 19 -31 -3
-17 -1 -30 4 -30 4 0 8 27 8 60 0 33 -4 60 -9 60 -4 0 -6 -11 -4 -24z"/>
<path d="M902 195 c-16 -36 -14 -45 3 -15 l14 25 22 -52 c12 -29 25 -53 30
-53 4 0 -4 27 -18 60 -15 33 -29 60 -33 60 -4 0 -12 -11 -18 -25z"/>
<path d="M1020 160 c0 -33 3 -60 8 -60 4 0 7 27 7 60 0 33 -3 60 -7 60 -5 0
-8 -27 -8 -60z"/>
<path d="M1078 195 c3 -17 -1 -27 -11 -31 -14 -5 -13 -10 5 -35 12 -16 26 -29
31 -29 4 0 -1 12 -13 27 -14 18 -17 30 -10 37 12 12 13 43 1 50 -4 3 -6 -6 -3
-19z"/>
<path d="M1180 160 c0 -33 3 -60 8 -60 4 0 7 27 7 60 0 33 -3 60 -7 60 -5 0
-8 -27 -8 -60z"/>
<path d="M1280 160 c0 -33 4 -60 10 -60 6 0 10 27 10 60 0 33 -4 60 -10 60 -6
0 -10 -27 -10 -60z"/>
<path d="M1403 208 c-28 -36 -21 -89 13 -102 17 -6 17 -6 1 12 -20 22 -22 73
-5 90 7 7 9 12 6 12 -3 0 -10 -6 -15 -12z"/>
<path d="M1483 199 c22 -30 21 -58 0 -81 -16 -18 -16 -18 0 -12 34 13 33 100
-2 112 -11 4 -10 -1 2 -19z"/>
<path d="M1560 160 c0 -33 4 -60 9 -60 6 0 9 27 8 60 -1 33 -5 60 -9 60 -5 0
-8 -27 -8 -60z"/>
<path d="M1617 200 c3 -11 0 -27 -7 -35 -9 -11 -8 -19 7 -39 10 -14 22 -26 26
-26 5 0 -1 13 -13 29 -12 18 -16 32 -10 36 12 8 13 42 1 49 -5 4 -7 -3 -4 -14z"/>
<path d="M1690 160 c0 -33 4 -60 10 -60 6 0 10 27 10 60 0 33 -4 60 -10 60 -6
0 -10 -27 -10 -60z"/>
<path d="M1768 208 c18 -18 15 -68 -5 -91 -17 -19 -17 -20 4 -8 13 6 25 22 28
34 7 28 -10 77 -27 77 -9 0 -9 -3 0 -12z"/>
<path d="M872 125 c-6 -14 -10 -25 -8 -25 2 0 11 11 20 25 9 14 13 25 8 25 -5
0 -14 -11 -20 -25z"/>
<path d="M218 103 c7 -3 16 -2 19 1 4 3 -2 6 -13 5 -11 0 -14 -3 -6 -6z"/>
</g>
</svg>
