    <svg
      width="20"
      height="20"
      view-box="0 0 20 20"
      fill="none"
      xmlns="http://www.w3.org/2000/svg"
    >
      <title>groq</title>
      <circle cx="10" cy="10" r="10" fill="#F55036" />
      <path
        d="M10.0003 5C8.10781 5 6.56836 6.53575 6.56836 8.4235C6.56836 10.3113 8.10781 11.8472 10.0003 11.8472H11.129V10.5633H10.0003C8.81757 10.5633 7.85539 9.6034 7.85539 8.4235C7.85539 7.24361 8.81757 6.28374 10.0003 6.28374C11.1831 6.28374 12.1503 7.24361 12.1503 8.4235V11.5765C12.1503 12.7487 11.1935 13.7034 10.0214 13.7157C9.46051 13.7111 8.92418 13.4862 8.52865 13.0895L7.61861 13.9974C8.24938 14.6299 9.10399 14.9898 9.99819 14.9994V15C10.0059 15 10.0136 15 10.0212 15H10.0453V14.9994C11.9108 14.9742 13.4213 13.4571 13.4299 11.5919L13.4311 8.3395C13.3863 6.49067 11.8644 5 10.0003 5Z"
        fill="white"
      />
    </svg>