<?xml version="1.0" standalone="no"?>
<!DOCTYPE svg PUBLIC "-//W3C//DTD SVG 20010904//EN"
 "http://www.w3.org/TR/2001/REC-SVG-20010904/DTD/svg10.dtd">
<svg version="1.0" xmlns="http://www.w3.org/2000/svg"
 width="200.000000pt" height="200.000000pt" viewBox="0 0 200.000000 200.000000"
 preserveAspectRatio="xMidYMid meet">

<g transform="translate(0.000000,200.000000) scale(0.100000,-0.100000)"
fill="#000000" stroke="none">
<path d="M1402 1532 c-69 -144 -170 -237 -310 -283 -84 -28 -109 -55 -146
-155 -27 -73 -70 -134 -95 -134 -6 0 -11 15 -11 33 0 43 -24 75 -74 98 -50 23
-87 24 -152 4 -48 -14 -104 -58 -91 -71 3 -4 36 -7 72 -8 35 0 65 -2 65 -3 0
0 -11 -23 -25 -50 -36 -69 -58 -168 -52 -225 7 -52 31 -108 49 -108 17 0 84
74 133 149 59 89 77 99 145 76 64 -21 142 -16 205 15 24 12 77 55 118 96 41
40 81 74 89 74 24 0 97 69 120 114 19 34 23 62 26 162 4 115 -10 260 -26 276
-5 5 -23 -23 -40 -60z"/>
<path d="M482 1561 c77 -49 132 -169 144 -311 4 -43 10 -84 14 -91 5 -7 26
-12 52 -11 64 3 127 -32 156 -86 26 -47 37 -46 58 4 22 52 18 106 -11 145 -44
61 -56 90 -66 152 -12 74 -39 120 -88 152 -40 27 -214 75 -269 75 l-36 0 46
-29z"/>
<path d="M400 901 c-5 -11 -7 -40 -4 -65 6 -39 10 -46 35 -51 34 -8 44 -20 53
-63 11 -60 36 -100 68 -111 47 -17 49 -15 23 42 -13 28 -27 70 -31 92 -4 22
-16 46 -26 54 -11 7 -35 38 -54 67 -38 59 -48 64 -64 35z"/>
<path d="M1189 850 l-24 -19 43 -1 c60 0 99 -20 164 -83 72 -70 107 -79 175
-46 33 17 49 31 51 47 2 12 1 22 -2 22 -2 0 -27 -14 -55 -31 -62 -39 -91 -34
-125 19 -64 101 -167 142 -227 92z"/>
<path d="M1070 826 c-82 -18 -99 -31 -130 -100 -15 -34 -42 -79 -59 -98 -17
-20 -31 -38 -31 -42 0 -9 61 -7 100 4 57 16 104 63 149 149 40 78 48 102 34
100 -5 -1 -33 -7 -63 -13z"/>
<path d="M842 823 c-7 -3 -41 -41 -75 -85 -34 -44 -70 -90 -81 -103 -28 -35
-12 -48 53 -43 88 6 140 53 184 165 16 41 16 43 -5 58 -22 15 -51 18 -76 8z"/>
<path d="M1147 753 c-14 -27 -27 -65 -31 -85 -14 -78 28 -105 176 -114 108 -7
138 -15 138 -39 0 -20 -26 -32 -90 -40 -61 -8 -80 -19 -80 -46 0 -24 58 -35
101 -20 44 15 179 119 179 137 0 9 -9 18 -20 21 -23 6 -25 14 -9 30 8 8 -1 16
-32 31 -24 11 -77 50 -118 86 -79 73 -104 86 -156 86 -31 0 -37 -5 -58 -47z"/>
<path d="M1011 573 c-22 -42 -66 -75 -126 -93 -77 -24 -99 -65 -40 -76 47 -8
125 4 125 20 0 20 41 53 95 77 79 34 81 37 43 76 -43 45 -72 43 -97 -4z"/>
<path d="M577 535 c-28 -32 -54 -49 -95 -63 -42 -14 -58 -24 -60 -39 -3 -23
20 -33 79 -33 27 0 43 8 70 36 38 40 79 63 156 88 49 16 85 40 45 29 -10 -2
-46 3 -79 11 -34 9 -65 16 -69 15 -5 0 -26 -20 -47 -44z"/>
</g>
</svg>
