<?xml version="1.0" encoding="UTF-8"?>
<svg version="1.1" xmlns="http://www.w3.org/2000/svg" width="200" height="200">
<path d="M0 0 C16.5 0 33 0 50 0 C50 0.66 50 1.32 50 2 C51.89248819 2.67610423 53.7891602 3.34050439 55.6875 4 C56.74324219 4.37125 57.79898438 4.7425 58.88671875 5.125 C61.78362056 5.9391857 64.01700623 6.17709796 67 6 C67 6.66 67 7.32 67 8 C67.87011719 8.09410156 68.74023438 8.18820312 69.63671875 8.28515625 C73.34916638 9.07421306 75.65458144 10.35958095 78.8125 12.4375 C79.76769531 13.05496094 80.72289062 13.67242187 81.70703125 14.30859375 C84 16 84 16 85 18 C85.99 18.33 86.98 18.66 88 19 C88.33 19.66 88.66 20.32 89 21 C89.598125 21.2475 90.19625 21.495 90.8125 21.75 C93.88965828 23.50837616 95.0423428 26.05652256 97 29 C98.25806283 30.45420176 99.51719163 31.90785392 100.8059082 33.33496094 C117.4602141 51.89925879 125.41082993 74.80868909 125.375 99.5625 C125.37412384 100.2257428 125.37324768 100.8889856 125.37234497 101.57232666 C125.26167213 126.99338117 116.63199813 148.41669461 99.81933594 167.4987793 C97.16722722 170.51913114 95.04924629 173.55382005 93 177 C90.9375 178.125 90.9375 178.125 89 179 C88.34 179.99 87.68 180.98 87 182 C86.01 182.33 85.02 182.66 84 183 C83.42378906 183.59554687 82.84757813 184.19109375 82.25390625 184.8046875 C79.45658507 187.52928802 76.35569788 189.30569922 72.9375 191.125 C72.27645264 191.47900879 71.61540527 191.83301758 70.93432617 192.19775391 C66.12995538 194.66293317 61.67435094 196.06727409 56.26953125 196.6484375 C53.84259795 197.02438242 52.12660944 197.79736569 50 199 C50 199.33 50 199.66 50 200 C33.5 200 17 200 0 200 C0 199.34 0 198.68 0 198 C-1.89248819 197.32389577 -3.7891602 196.65949561 -5.6875 196 C-7.27111328 195.443125 -7.27111328 195.443125 -8.88671875 194.875 C-11.78362056 194.0608143 -14.01700623 193.82290204 -17 194 C-17 193.34 -17 192.68 -17 192 C-17.87011719 191.90589844 -18.74023438 191.81179687 -19.63671875 191.71484375 C-23.34916638 190.92578694 -25.65458144 189.64041905 -28.8125 187.5625 C-29.76769531 186.94503906 -30.72289062 186.32757813 -31.70703125 185.69140625 C-34 184 -34 184 -35 182 C-35.99 181.67 -36.98 181.34 -38 181 C-38.33 180.34 -38.66 179.68 -39 179 C-39.8971875 178.62875 -39.8971875 178.62875 -40.8125 178.25 C-43.88965828 176.49162384 -45.0423428 173.94347744 -47 171 C-48.25806283 169.54579824 -49.51719163 168.09214608 -50.8059082 166.66503906 C-67.4602141 148.10074121 -75.41082993 125.19131091 -75.375 100.4375 C-75.37412384 99.7742572 -75.37324768 99.1110144 -75.37234497 98.42767334 C-75.26167213 73.00661883 -66.63199813 51.58330539 -49.81933594 32.5012207 C-47.16722722 29.48086886 -45.04924629 26.44617995 -43 23 C-40.9375 21.875 -40.9375 21.875 -39 21 C-38.34 20.01 -37.68 19.02 -37 18 C-36.01 17.67 -35.02 17.34 -34 17 C-33.13568359 16.10667969 -33.13568359 16.10667969 -32.25390625 15.1953125 C-29.45658507 12.47071198 -26.35569788 10.69430078 -22.9375 8.875 C-21.94592896 8.34398682 -21.94592896 8.34398682 -20.93432617 7.80224609 C-16.12995538 5.33706683 -11.67435094 3.93272591 -6.26953125 3.3515625 C-3.84259795 2.97561758 -2.12660944 2.20263431 0 1 C0 0.67 0 0.34 0 0 Z " fill="#FDFEFD" transform="translate(75,0)"/>
<path d="M0 0 C2.55444336 1.21826172 2.55444336 1.21826172 5.08984375 2.9296875 C6.50330078 3.86941406 6.50330078 3.86941406 7.9453125 4.828125 C8.93273437 5.50359375 9.92015625 6.1790625 10.9375 6.875 C11.95714844 7.55304687 12.97679687 8.23109375 14.02734375 8.9296875 C18.59667788 11.97591025 23.12506949 15.07128267 27.59765625 18.2578125 C28.26740479 18.72719238 28.93715332 19.19657227 29.62719727 19.68017578 C30.8372114 20.53291159 32.03545565 21.40271377 33.21850586 22.29248047 C36.12455178 24.33985246 37.72125463 25.01376546 41.30737305 24.83666992 C45.38104805 23.9136627 47.81063907 22.53883179 51.23828125 20.17578125 C52.08678902 19.59995552 52.08678902 19.59995552 52.95243835 19.01249695 C54.74758138 17.79100955 56.53024549 16.55269747 58.3125 15.3125 C60.65962843 13.69983401 63.01109465 12.09355825 65.36328125 10.48828125 C65.9308313 10.10010727 66.49838135 9.71193329 67.08312988 9.31199646 C80.23096168 0.36035966 80.23096168 0.36035966 85.375 -0.6875 C88 0 88 0 90.1875 1.75 C92.29886133 5.53588927 93.14645892 8.98824247 94.09765625 13.19921875 C95.18635149 17.78493505 96.49283367 22.28888851 97.8125 26.8125 C100.37495542 35.64966531 102.74031101 44.52800066 104.99536133 53.44848633 C105.22892334 54.36267334 105.46248535 55.27686035 105.703125 56.21875 C105.90583008 57.02248047 106.10853516 57.82621094 106.31738281 58.65429688 C106.97444149 61.05621228 106.97444149 61.05621228 108.01147461 63.51635742 C108.94253365 65.85561738 109.56765489 68.06592182 110.11328125 70.51953125 C110.30704346 71.36966797 110.50080566 72.21980469 110.70043945 73.09570312 C110.90241943 73.99224609 111.10439941 74.88878906 111.3125 75.8125 C113.1829632 83.94827184 115.40571235 91.84456572 118.08203125 99.75 C118.92584359 102.73745474 119.36736328 104.92950098 119 108 C117 110 117 110 113.46826172 110.22705078 C111.95536669 110.22673363 110.44244912 110.21540633 108.9296875 110.1953125 C108.13345978 110.1924826 107.33723206 110.18965271 106.51687622 110.18673706 C103.96943237 110.1755264 101.42233789 110.15042062 98.875 110.125 C97.14974465 110.11497133 95.42448381 110.10584528 93.69921875 110.09765625 C89.46601086 110.07558422 85.2330647 110.04104867 81 110 C81.45620728 109.09109009 81.45620728 109.09109009 81.92163086 108.16381836 C83.1756091 105.64762882 84.37786948 103.11210777 85.5625 100.5625 C85.99691406 99.63566406 86.43132812 98.70882812 86.87890625 97.75390625 C90.53580607 88.77092934 90.55087167 75.87994494 86.92578125 66.89453125 C84.89067778 62.72986802 82.57391287 58.86086931 80 55 C79.4375 52.77929688 79.4375 52.77929688 79 50.21875 C78.835 49.29449219 78.67 48.37023437 78.5 47.41796875 C78.16666667 45.47265625 77.83333333 43.52734375 77.5 41.58203125 C77.335 40.65777344 77.17 39.73351562 77 38.78125 C76.855625 37.93626953 76.71125 37.09128906 76.5625 36.22070312 C76.06423452 33.73515354 76.06423452 33.73515354 74 31 C70.5817047 32.00688998 68.4260919 33.40459273 65.92578125 35.85546875 C59.00200864 42.4201731 53.10196494 45.79199851 43.39404297 46.09106445 C30.02049519 45.73224318 22.09762726 42.28210107 12.49365234 33.19140625 C10.45327502 31.56390685 8.57618951 31.15466804 6 31 C5.81824219 32.26714844 5.63648438 33.53429687 5.44921875 34.83984375 C5.19573473 36.53912554 4.94180454 38.23834081 4.6875 39.9375 C4.51057617 41.18370117 4.51057617 41.18370117 4.33007812 42.45507812 C3.25544342 49.53664526 2.01304316 56.6939516 -2.5 62.4375 C-8.49894722 70.37568393 -9.12403735 80.383236 -8 90 C-6.09300451 96.9923168 -3.55268074 102.38697268 1 108 C1 108.66 1 109.32 1 110 C-4.09031755 110.04936158 -9.18049643 110.08570105 -14.27099609 110.10986328 C-16.00344265 110.11993376 -17.73587216 110.13359089 -19.46826172 110.15087891 C-21.95544639 110.17508162 -24.44240675 110.18647239 -26.9296875 110.1953125 C-27.70682098 110.20563507 -28.48395447 110.21595764 -29.28463745 110.22659302 C-31.19125493 110.22699271 -33.09731036 110.1223214 -35 110 C-37 108 -37 108 -37.23583984 105.28710938 C-36.98286737 101.76120729 -36.25134088 98.78738455 -35.2265625 95.40625 C-34.85950195 94.17519531 -34.49244141 92.94414062 -34.11425781 91.67578125 C-33.74655273 90.46277344 -33.37884766 89.24976563 -33 88 C-32.40056933 85.94881323 -31.8040752 83.89676534 -31.2109375 81.84375 C-30.76596924 80.30932251 -30.76596924 80.30932251 -30.31201172 78.74389648 C-26.87561679 66.8472369 -23.63914007 54.91371057 -20.52328491 42.92959595 C-14.52585801 19.87466593 -14.52585801 19.87466593 -11.5625 10.3125 C-11.33997559 9.57765381 -11.11745117 8.84280762 -10.88818359 8.08569336 C-8.73535261 1.39103536 -7.16034856 -0.55368571 0 0 Z " fill="#2CE056" transform="translate(59,42)"/>
<path d="M0 0 C2.97 0 5.94 0 9 0 C9 7.59 9 15.18 9 23 C5.7 23 2.4 23 -1 23 C-1.0272367 20.47909222 -1.04695207 17.95848543 -1.0625 15.4375 C-1.07087891 14.73302734 -1.07925781 14.02855469 -1.08789062 13.30273438 C-1.10882603 8.75975202 -0.74800682 4.48215108 0 0 Z " fill="#121212" transform="translate(83,109)"/>
<path d="M0 0 C2.97 0 5.94 0 9 0 C9.33 7.59 9.66 15.18 10 23 C6.7 23 3.4 23 0 23 C0 15.41 0 7.82 0 0 Z " fill="#0B0B0B" transform="translate(108,109)"/>
<path d="M0 0 C2 1.375 2 1.375 4 3 C4 3.66 4 4.32 4 5 C-7.88 5 -19.76 5 -32 5 C-32.33 4.34 -32.66 3.68 -33 3 C-22.44 2.67 -11.88 2.34 -1 2 C-0.67 1.34 -0.34 0.68 0 0 Z " fill="#55E079" transform="translate(56,147)"/>
<path d="M0 0 C11.22 0 22.44 0 34 0 C34 1.32 34 2.64 34 4 C22.12 4 10.24 4 -2 4 C-1.34 2.68 -0.68 1.36 0 0 Z " fill="#50E374" transform="translate(142,148)"/>
<path d="M0 0 C0.66 0 1.32 0 2 0 C2.02688151 1.64574566 2.04634123 3.29161413 2.0625 4.9375 C2.07410156 5.85402344 2.08570313 6.77054688 2.09765625 7.71484375 C2 10 2 10 1 11 C-1.8116338 11.08861992 -4.59858255 11.11522355 -7.41015625 11.09765625 C-8.25219101 11.0962413 -9.09422577 11.09482635 -9.96177673 11.09336853 C-12.66205335 11.08775263 -15.36224828 11.07519748 -18.0625 11.0625 C-19.88867068 11.05748705 -21.71484266 11.05292379 -23.54101562 11.04882812 C-28.02737542 11.03777804 -32.51367384 11.02050279 -37 11 C-37 10.67 -37 10.34 -37 10 C-35.91468994 9.97494385 -34.82937988 9.9498877 -33.71118164 9.92407227 C-29.698684 9.83016245 -25.68636618 9.72990233 -21.67407227 9.62768555 C-19.93485712 9.58427427 -18.19559765 9.54260388 -16.45629883 9.50268555 C-13.96161512 9.44513232 -11.4671559 9.3813958 -8.97265625 9.31640625 C-8.19036148 9.29969376 -7.40806671 9.28298126 -6.60206604 9.26576233 C-3.00128219 9.49351269 -3.00128219 9.49351269 0 8 C0.07148199 6.64756083 0.08399454 5.29165633 0.0625 3.9375 C0.041875 2.638125 0.02125 1.33875 0 0 Z " fill="#E4FFEE" transform="translate(177,142)"/>
<path d="M0 0 C2.12711401 5.90865001 -0.09052577 11.53537668 -2.30078125 17.06640625 C-3.2405419 19.6651857 -3.65813632 22.26509053 -4 25 C-4.66 24.67 -5.32 24.34 -6 24 C-5.37899527 21.1240849 -4.75333835 18.24931373 -4.125 15.375 C-3.95097656 14.56675781 -3.77695312 13.75851563 -3.59765625 12.92578125 C-2.62929775 8.51437032 -1.5300773 4.25940436 0 0 Z " fill="#48D76C" transform="translate(39,84)"/>
<path d="M0 0 C0.33 0 0.66 0 1 0 C2.32 7.59 3.64 15.18 5 23 C4.01 22.67 3.02 22.34 2 22 C1.90912109 20.93458984 1.90912109 20.93458984 1.81640625 19.84765625 C1.73261719 18.92855469 1.64882812 18.00945312 1.5625 17.0625 C1.48128906 16.14597656 1.40007812 15.22945312 1.31640625 14.28515625 C1.23955024 12.03840268 1.23955024 12.03840268 0 11 C-0.07226502 9.14712498 -0.0838122 7.29166122 -0.0625 5.4375 C-0.05347656 4.42558594 -0.04445312 3.41367188 -0.03515625 2.37109375 C-0.02355469 1.58863281 -0.01195312 0.80617188 0 0 Z " fill="#C7FAD6" transform="translate(135,76)"/>
<path d="M0 0 C0.97602955 3.07243106 0.96951672 4.96786681 0.125 8.0625 C-1.17543403 13.33452985 -1.6160297 18.5941024 -2 24 C-2.33 24 -2.66 24 -3 24 C-3.33328851 15.43325085 -3.11584616 8.04926924 0 0 Z " fill="#B8F6C9" transform="translate(53,108)"/>
<path d="M0 0 C1.89213369 2.38573379 3.02391783 4.07175348 4 7 C4.66 7.66 5.32 8.32 6 9 C6.39764263 10.98821313 6.73775349 12.98944339 7 15 C1.64466943 10.77210744 0.8622489 6.62773407 0 0 Z " fill="#41D868" transform="translate(138,89)"/>
<path d="M0 0 C3.20092666 -0.31838702 4.68668659 -0.1952605 7.45703125 1.53125 C8.23433594 2.1809375 9.01164062 2.830625 9.8125 3.5 C10.60269531 4.1496875 11.39289063 4.799375 12.20703125 5.46875 C12.79871094 5.9740625 13.39039062 6.479375 14 7 C13.01 7.33 12.02 7.66 11 8 C9.50110517 6.76178253 8.00580826 5.51742945 6.5625 4.21484375 C4.48609368 2.60043783 2.59017998 2.22854529 0 2 C0 1.34 0 0.68 0 0 Z " fill="#D9FEE6" transform="translate(65,73)"/>
<path d="M0 0 C0.33 0.99 0.66 1.98 1 3 C-3.625 6 -3.625 6 -7 6 C-7 6.66 -7 7.32 -7 8 C-8.32 7.67 -9.64 7.34 -11 7 C-7.37 4.69 -3.74 2.38 0 0 Z " fill="#45DB6A" transform="translate(133,47)"/>
<path d="M0 0 C0.66 0 1.32 0 2 0 C1.71715982 1.77226453 1.42339502 3.542788 1.125 5.3125 C0.96257813 6.29863281 0.80015625 7.28476562 0.6328125 8.30078125 C0 11 0 11 -2 14 C-2 11.36 -2 8.72 -2 6 C-1.34 6 -0.68 6 0 6 C0 4.02 0 2.04 0 0 Z " fill="#D8FDE0" transform="translate(47,47)"/>
<path d="M0 0 C0.66 0 1.32 0 2 0 C0.79157144 4.43090471 -0.51668565 6.98112756 -4 10 C-4 8.68 -4 7.36 -4 6 C-3.34 6 -2.68 6 -2 6 C-1.7834375 5.071875 -1.7834375 5.071875 -1.5625 4.125 C-1 2 -1 2 0 0 Z " fill="#D7FDE3" transform="translate(143,142)"/>
<path d="M0 0 C0.33 0 0.66 0 1 0 C1.28571429 8.57142857 1.28571429 8.57142857 -1 12 C-1.66 12 -2.32 12 -3 12 C-2.01 8.04 -1.02 4.08 0 0 Z " fill="#53DC73" transform="translate(148,132)"/>
<path d="M0 0 C0.66 0.33 1.32 0.66 2 1 C0.02 3.31 -1.96 5.62 -4 8 C-4.99 7.34 -5.98 6.68 -7 6 C-4.69 4.02 -2.38 2.04 0 0 Z " fill="#D2FBDE" transform="translate(125,76)"/>
<path d="M0 0 C1.32 0 2.64 0 4 0 C4 0.66 4 1.32 4 2 C5.32 2 6.64 2 8 2 C8 2.66 8 3.32 8 4 C8.99 4.33 9.98 4.66 11 5 C6.1948447 5.56531239 3.75696103 3.88324916 0 1 C0 0.67 0 0.34 0 0 Z " fill="#CCFBDA" transform="translate(91,63)"/>
<path d="M0 0 C0.99 0.66 1.98 1.32 3 2 C3 2.66 3 3.32 3 4 C-0.63 4 -4.26 4 -8 4 C-8 3.67 -8 3.34 -8 3 C-6.865625 2.87625 -5.73125 2.7525 -4.5625 2.625 C-3.386875 2.41875 -2.21125 2.2125 -1 2 C-0.67 1.34 -0.34 0.68 0 0 Z " fill="#3BD562" transform="translate(56,147)"/>
<path d="M0 0 C0.33 0 0.66 0 1 0 C1.08131463 1.43655854 1.13933559 2.8744483 1.1875 4.3125 C1.23970703 5.51326172 1.23970703 5.51326172 1.29296875 6.73828125 C0.93801608 9.47851584 0.10633718 10.29171079 -2 12 C-1.44687265 7.97007218 -0.8441938 3.97977076 0 0 Z " fill="#44D96C" transform="translate(26,130)"/>
<path d="M0 0 C2.97 1.65 5.94 3.3 9 5 C8.01 5.33 7.02 5.66 6 6 C2.8125 4.1875 2.8125 4.1875 0 2 C0 1.34 0 0.68 0 0 Z " fill="#43D566" transform="translate(67,48)"/>
<path d="M0 0 C4 1 4 1 4 1 Z " fill="#FFFFFF" transform="translate(125,198)"/>
<path d="M0 0 C4 1 4 1 4 1 Z " fill="#FFFFFF" transform="translate(71,198)"/>
<path d="M0 0 C0.99 0.495 0.99 0.495 2 1 C1.67 1.66 1.34 2.32 1 3 C0.67 2.01 0.34 1.02 0 0 Z " fill="#FFFFFF" transform="translate(22,165)"/>
<path d="M0 0 C0 3 0 3 0 3 Z " fill="#FFFFFF" transform="translate(177,165)"/>
<path d="M0 0 C1 4 1 4 1 4 Z " fill="#FFFFFF" transform="translate(198,125)"/>
<path d="M0 0 C1 4 1 4 1 4 Z " fill="#FFFFFF" transform="translate(1,125)"/>
<path d="M0 0 C1 4 1 4 1 4 Z " fill="#FFFFFF" transform="translate(199,121)"/>
<path d="M0 0 C1 4 1 4 1 4 Z " fill="#FFFFFF" transform="translate(0,121)"/>
<path d="M0 0 C1 4 1 4 1 4 Z " fill="#FFFFFF" transform="translate(199,75)"/>
<path d="M0 0 C1 4 1 4 1 4 Z " fill="#FFFFFF" transform="translate(0,75)"/>
<path d="M0 0 C1 4 1 4 1 4 Z " fill="#FFFFFF" transform="translate(198,71)"/>
<path d="M0 0 C1 4 1 4 1 4 Z " fill="#FFFFFF" transform="translate(1,71)"/>
<path d="M0 0 C0.99 0.495 0.99 0.495 2 1 C1.67 1.66 1.34 2.32 1 3 C0.67 2.01 0.34 1.02 0 0 Z " fill="#FFFFFF" transform="translate(176,32)"/>
<path d="M0 0 C0 3 0 3 0 3 Z " fill="#FFFFFF" transform="translate(23,32)"/>
<path d="M0 0 C4 1 4 1 4 1 Z " fill="#FFFFFF" transform="translate(125,1)"/>
<path d="M0 0 C4 1 4 1 4 1 Z " fill="#FFFFFF" transform="translate(71,1)"/>
<path d="M0 0 C3 1 3 1 3 1 Z " fill="#FFFFFF" transform="translate(129,197)"/>
<path d="M0 0 C3 1 3 1 3 1 Z " fill="#FFFFFF" transform="translate(68,197)"/>
<path d="M0 0 C3 1 3 1 3 1 Z " fill="#FFFFFF" transform="translate(63,195)"/>
<path d="" fill="#FFFFFF" transform="translate(0,0)"/>
<path d="" fill="#FFFFFF" transform="translate(0,0)"/>
<path d="" fill="#FFFFFF" transform="translate(0,0)"/>
<path d="" fill="#FFFFFF" transform="translate(0,0)"/>
<path d="" fill="#FFFFFF" transform="translate(0,0)"/>
<path d="" fill="#FFFFFF" transform="translate(0,0)"/>
<path d="" fill="#FFFFFF" transform="translate(0,0)"/>
<path d="" fill="#FFFFFF" transform="translate(0,0)"/>
<path d="" fill="#FFFFFF" transform="translate(0,0)"/>
<path d="" fill="#FFFFFF" transform="translate(0,0)"/>
<path d="M0 0 C3 1 3 1 3 1 Z " fill="#FFFFFF" transform="translate(134,4)"/>
<path d="M0 0 C3 1 3 1 3 1 Z " fill="#FFFFFF" transform="translate(129,2)"/>
<path d="M0 0 C3 1 3 1 3 1 Z " fill="#FFFFFF" transform="translate(68,2)"/>
<path d="M0 0 C2 1 2 1 2 1 Z " fill="#FEFEFE" transform="translate(132,196)"/>
<path d="M0 0 C2 1 2 1 2 1 Z " fill="#FEFEFE" transform="translate(66,196)"/>
<path d="M0 0 C2 1 2 1 2 1 Z " fill="#FFFFFF" transform="translate(61,194)"/>
<path d="M0 0 C2 1 2 1 2 1 Z " fill="#FFFFFF" transform="translate(56,192)"/>
<path d="" fill="#FFFFFF" transform="translate(0,0)"/>
<path d="" fill="#FFFFFF" transform="translate(0,0)"/>
<path d="" fill="#FFFFFF" transform="translate(0,0)"/>
<path d="" fill="#FEFEFE" transform="translate(0,0)"/>
<path d="" fill="#FEFEFE" transform="translate(0,0)"/>
<path d="" fill="#FFFFFE" transform="translate(0,0)"/>
<path d="" fill="#FEFEFE" transform="translate(0,0)"/>
<path d="" fill="#FFFEFF" transform="translate(0,0)"/>
<path d="" fill="#FEFEFE" transform="translate(0,0)"/>
<path d="" fill="#FFFFFD" transform="translate(0,0)"/>
<path d="" fill="#FEFEFE" transform="translate(0,0)"/>
<path d="" fill="#FFFFFD" transform="translate(0,0)"/>
<path d="" fill="#FEFEFE" transform="translate(0,0)"/>
<path d="" fill="#FFFFFF" transform="translate(0,0)"/>
<path d="" fill="#FFFFFF" transform="translate(0,0)"/>
<path d="" fill="#FFFFFF" transform="translate(0,0)"/>
<path d="" fill="#FFFFFF" transform="translate(0,0)"/>
<path d="" fill="#FFFFFF" transform="translate(0,0)"/>
<path d="" fill="#FEFEFE" transform="translate(0,0)"/>
<path d="" fill="#FFFFFF" transform="translate(0,0)"/>
<path d="" fill="#FEFEFE" transform="translate(0,0)"/>
<path d="" fill="#FFFFFF" transform="translate(0,0)"/>
<path d="" fill="#FFFFFF" transform="translate(0,0)"/>
<path d="" fill="#FFFFFF" transform="translate(0,0)"/>
<path d="" fill="#FFFFFF" transform="translate(0,0)"/>
<path d="" fill="#FFFFFF" transform="translate(0,0)"/>
<path d="" fill="#FFFFFF" transform="translate(0,0)"/>
<path d="" fill="#FFFFFF" transform="translate(0,0)"/>
<path d="" fill="#FEFEFE" transform="translate(0,0)"/>
<path d="" fill="#FFFFFF" transform="translate(0,0)"/>
<path d="" fill="#FEFEFE" transform="translate(0,0)"/>
<path d="" fill="#FEFEFE" transform="translate(0,0)"/>
<path d="" fill="#FEFEFE" transform="translate(0,0)"/>
<path d="" fill="#FFFFFF" transform="translate(0,0)"/>
<path d="" fill="#FEFEFE" transform="translate(0,0)"/>
<path d="" fill="#FFFFFF" transform="translate(0,0)"/>
<path d="" fill="#FFFFFF" transform="translate(0,0)"/>
<path d="" fill="#FEFEFE" transform="translate(0,0)"/>
<path d="" fill="#FFFFFF" transform="translate(0,0)"/>
<path d="" fill="#FFFFFF" transform="translate(0,0)"/>
<path d="M0 0 C2 1 2 1 2 1 Z " fill="#FFFFFF" transform="translate(142,7)"/>
<path d="M0 0 C2 1 2 1 2 1 Z " fill="#FFFFFF" transform="translate(137,5)"/>
<path d="M0 0 C2 1 2 1 2 1 Z " fill="#FFFFFF" transform="translate(132,3)"/>
<path d="M0 0 C2 1 2 1 2 1 Z " fill="#FFFFFF" transform="translate(66,3)"/>
<path d="" fill="#FFFFFF" transform="translate(0,0)"/>
<path d="" fill="#FFFFFF" transform="translate(0,0)"/>
<path d="" fill="#FFFFFF" transform="translate(0,0)"/>
<path d="" fill="#FFFFFF" transform="translate(0,0)"/>
<path d="" fill="#FFFFFF" transform="translate(0,0)"/>
<path d="" fill="#FFFFFF" transform="translate(0,0)"/>
<path d="" fill="#FFFFFF" transform="translate(0,0)"/>
<path d="" fill="#FFFFFF" transform="translate(0,0)"/>
<path d="" fill="#FFFFFF" transform="translate(0,0)"/>
<path d="" fill="#FFFFFF" transform="translate(0,0)"/>
<path d="" fill="#FFFFFF" transform="translate(0,0)"/>
<path d="" fill="#FFFFFF" transform="translate(0,0)"/>
<path d="" fill="#FFFFFF" transform="translate(0,0)"/>
<path d="" fill="#FFFFFF" transform="translate(0,0)"/>
<path d="" fill="#FFFFFF" transform="translate(0,0)"/>
<path d="" fill="#FFFFFF" transform="translate(0,0)"/>
<path d="" fill="#FFFFFF" transform="translate(0,0)"/>
<path d="" fill="#FFFFFF" transform="translate(0,0)"/>
<path d="" fill="#FFFFFF" transform="translate(0,0)"/>
<path d="" fill="#FFFFFF" transform="translate(0,0)"/>
<path d="" fill="#FFFFFF" transform="translate(0,0)"/>
<path d="" fill="#FFFFFF" transform="translate(0,0)"/>
<path d="" fill="#FFFFFF" transform="translate(0,0)"/>
<path d="" fill="#FFFFFF" transform="translate(0,0)"/>
<path d="" fill="#FFFFFF" transform="translate(0,0)"/>
<path d="" fill="#FFFFFF" transform="translate(0,0)"/>
<path d="" fill="#FFFFFF" transform="translate(0,0)"/>
<path d="" fill="#FEFEFE" transform="translate(0,0)"/>
<path d="" fill="#FFFFFF" transform="translate(0,0)"/>
<path d="" fill="#FFFFFF" transform="translate(0,0)"/>
<path d="" fill="#FEFEFE" transform="translate(0,0)"/>
<path d="" fill="#FEFEFE" transform="translate(0,0)"/>
<path d="" fill="#FEFEFE" transform="translate(0,0)"/>
<path d="" fill="#FEFEFE" transform="translate(0,0)"/>
<path d="" fill="#FFFFFF" transform="translate(0,0)"/>
<path d="" fill="#FEFEFE" transform="translate(0,0)"/>
<path d="" fill="#FFFFFF" transform="translate(0,0)"/>
<path d="" fill="#FFFFFF" transform="translate(0,0)"/>
<path d="" fill="#FFFFFF" transform="translate(0,0)"/>
<path d="" fill="#FFFFFF" transform="translate(0,0)"/>
<path d="" fill="#FFFFFF" transform="translate(0,0)"/>
<path d="" fill="#FFFFFF" transform="translate(0,0)"/>
<path d="" fill="#FFFFFF" transform="translate(0,0)"/>
<path d="" fill="#FFFFFF" transform="translate(0,0)"/>
<path d="" fill="#FFFFFF" transform="translate(0,0)"/>
<path d="" fill="#FFFFFF" transform="translate(0,0)"/>
<path d="" fill="#FFFFFF" transform="translate(0,0)"/>
<path d="" fill="#FEFEFE" transform="translate(0,0)"/>
<path d="" fill="#FFFFFF" transform="translate(0,0)"/>
<path d="" fill="#FEFEFE" transform="translate(0,0)"/>
<path d="" fill="#FFFFFF" transform="translate(0,0)"/>
<path d="" fill="#FEFEFE" transform="translate(0,0)"/>
<path d="" fill="#FFFFFF" transform="translate(0,0)"/>
<path d="" fill="#FEFEFE" transform="translate(0,0)"/>
<path d="" fill="#FFFFFF" transform="translate(0,0)"/>
<path d="" fill="#FEFEFE" transform="translate(0,0)"/>
<path d="" fill="#FFFFFF" transform="translate(0,0)"/>
<path d="" fill="#FEFEFE" transform="translate(0,0)"/>
<path d="" fill="#FFFFFF" transform="translate(0,0)"/>
<path d="" fill="#FFFFFF" transform="translate(0,0)"/>
<path d="" fill="#FFFFFF" transform="translate(0,0)"/>
<path d="" fill="#FFFFFF" transform="translate(0,0)"/>
</svg>
