    <svg
      width="18"
      height="17"
      view-box="0 0 18 17"
      fill="none"
      xmlns="http://www.w3.org/2000/svg"
    >
      <title>mistral</title>
      <g clip-path="url(#clip0_1258_5890)">
        <path d="M16.364 0H13.0913V3.28311H16.364V0Z" fill="black" />
        <path d="M18.0012 0H14.7285V3.28311H18.0012V0Z" fill="#F7D046" />
        <path d="M3.27273 0H0V3.28311H3.27273V0Z" fill="black" />
        <path d="M3.27273 3.28308H0V6.56619H3.27273V3.28308Z" fill="black" />
        <path d="M3.27273 6.56616H0V9.84927H3.27273V6.56616Z" fill="black" />
        <path d="M3.27273 9.84937H0V13.1325H3.27273V9.84937Z" fill="black" />
        <path d="M3.27273 13.1324H0V16.4156H3.27273V13.1324Z" fill="black" />
        <path d="M4.90749 0H1.63477V3.28311H4.90749V0Z" fill="#F7D046" />
        <path
          d="M18.0012 3.2832H14.7285V6.56631H18.0012V3.2832Z"
          fill="#F2A73B"
        />
        <path
          d="M4.90749 3.28333H1.63477V6.56643H4.90749V3.28333Z"
          fill="#F2A73B"
        />
        <path
          d="M13.0901 3.28333H9.81738V6.56643H13.0901V3.28333Z"
          fill="black"
        />
        <path
          d="M14.7273 3.28308H11.4546V6.56619H14.7273V3.28308Z"
          fill="#F2A73B"
        />
        <path
          d="M8.18142 3.28333H4.90869V6.56643H8.18142V3.28333Z"
          fill="#F2A73B"
        />
        <path
          d="M11.4553 6.56604H8.18262V9.84915H11.4553V6.56604Z"
          fill="#EE792F"
        />
        <path
          d="M14.7273 6.56616H11.4546V9.84927H14.7273V6.56616Z"
          fill="#EE792F"
        />
        <path
          d="M8.18142 6.56604H4.90869V9.84915H8.18142V6.56604Z"
          fill="#EE792F"
        />
        <path d="M10.0227 10.125H6.75V13.4081H10.0227V10.125Z" fill="black" />
        <path
          d="M11.4553 9.84924H8.18262V13.1324H11.4553V9.84924Z"
          fill="#EB5829"
        />
        <path
          d="M18.0012 6.56592H14.7285V9.84903H18.0012V6.56592Z"
          fill="#EE792F"
        />
        <path
          d="M4.90749 6.56604H1.63477V9.84915H4.90749V6.56604Z"
          fill="#EE792F"
        />
        <path
          d="M16.364 9.84924H13.0913V13.1324H16.364V9.84924Z"
          fill="black"
        />
        <path
          d="M18.0012 9.84924H14.7285V13.1324H18.0012V9.84924Z"
          fill="#EB5829"
        />
        <path
          d="M16.364 13.1326H13.0913V16.4157H16.364V13.1326Z"
          fill="black"
        />
        <path
          d="M4.90749 9.84924H1.63477V13.1324H4.90749V9.84924Z"
          fill="#EB5829"
        />
        <path
          d="M18.0012 13.1326H14.7285V16.4157H18.0012V13.1326Z"
          fill="#EA3326"
        />
        <path
          d="M4.90749 13.1326H1.63477V16.4157H4.90749V13.1326Z"
          fill="#EA3326"
        />
      </g>
      <defs>
        <clipPath id="clip0_1258_5890">
          <rect width="18" height="16.4348" fill="white" />
        </clipPath>
      </defs>
    </svg>