<?xml version="1.0" standalone="no"?>
<!DOCTYPE svg PUBLIC "-//W3C//DTD SVG 20010904//EN"
 "http://www.w3.org/TR/2001/REC-SVG-20010904/DTD/svg10.dtd">
<svg version="1.0" xmlns="http://www.w3.org/2000/svg"
 width="400.000000pt" height="400.000000pt" viewBox="0 0 400.000000 400.000000"
 preserveAspectRatio="xMidYMid meet">

<g transform="translate(0.000000,400.000000) scale(0.100000,-0.100000)"
fill="#000000" stroke="none">
<path d="M5 2000 c0 -1103 1 -1554 2 -1002 2 551 2 1453 0 2005 -1 551 -2 100
-2 -1003z"/>
<path d="M3995 2000 c0 -1103 1 -1554 2 -1002 2 551 2 1453 0 2005 -1 551 -2
100 -2 -1003z"/>
<path d="M1845 3889 c-126 -17 -318 -60 -443 -101 -68 -22 -122 -42 -119 -44
2 -2 30 5 63 16 188 65 351 81 484 47 318 -82 590 -408 705 -846 32 -121 32
-145 -1 -160 -39 -18 -26 -41 45 -77 35 -18 74 -43 85 -55 24 -24 26 -25 -76
24 -43 21 -82 46 -88 57 -18 33 -12 60 16 70 23 9 26 14 20 42 -3 17 -9 34
-11 37 -10 9 -169 -19 -177 -31 -15 -23 -4 -63 17 -66 31 -6 38 -18 31 -55 -6
-33 -84 -142 -94 -132 -6 6 24 53 55 87 30 31 24 65 -13 74 -14 4 -26 16 -29
28 -3 11 -12 56 -21 100 -35 178 -123 382 -218 505 -94 122 -249 241 -385 294
-67 27 -91 31 -202 35 -83 3 -145 0 -185 -9 -32 -7 -67 -12 -77 -11 -24 3
-222 -97 -327 -165 -187 -122 -339 -260 -414 -378 -201 -314 -259 -671 -144
-887 54 -102 176 -198 283 -224 l30 -7 -31 26 c-29 25 -83 122 -99 177 -5 16
3 10 22 -20 36 -54 75 -96 126 -135 38 -28 39 -29 33 -84 -3 -31 -17 -171 -31
-311 -31 -312 -69 -578 -95 -663 -27 -87 -69 -143 -119 -158 -155 -46 -277
138 -214 323 23 66 11 63 -38 -8 -79 -116 -78 -301 4 -420 98 -142 295 -147
443 -12 26 23 65 70 87 103 l40 60 -6 -38 c-15 -101 -107 -227 -201 -274 -41
-21 -60 -24 -115 -21 -157 9 -289 121 -321 272 -8 33 -9 24 -6 -43 8 -157 88
-273 241 -346 38 -18 84 -36 101 -40 28 -5 32 -11 43 -61 15 -64 54 -115 115
-147 58 -31 184 -31 241 0 45 24 103 81 134 133 l21 35 -6 -35 c-11 -60 -54
-183 -81 -230 -14 -25 -43 -66 -65 -92 l-39 -48 233 0 c215 0 235 2 266 20 43
27 60 25 36 -2 l-19 -23 26 22 c32 29 53 30 44 3 -5 -17 -2 -20 27 -20 28 1
38 9 71 54 50 69 117 135 117 114 0 -19 -29 -58 -89 -120 l-45 -48 55 0 56 0
66 76 c75 84 125 129 134 121 3 -4 -2 -18 -11 -32 -9 -14 -14 -25 -12 -25 6 0
141 80 208 123 46 30 120 72 272 154 70 38 66 26 -16 -55 -44 -42 -107 -112
-140 -156 -32 -43 -86 -103 -119 -133 -32 -30 -59 -59 -59 -64 0 -5 18 -9 39
-9 38 0 40 2 64 54 31 68 88 157 141 220 77 93 255 185 386 200 l55 7 -50 -18
c-115 -42 -225 -125 -294 -223 -36 -51 -50 -66 -53 -53 -3 13 -9 8 -25 -22
-17 -34 -53 -140 -53 -159 0 -3 15 -6 34 -6 29 0 37 5 53 35 22 43 163 198
254 279 94 85 142 106 263 117 190 18 296 -24 427 -169 69 -78 139 -176 148
-209 4 -16 16 -30 26 -32 16 -3 17 2 11 45 -13 94 -79 190 -195 278 -106 81
-188 118 -301 136 -47 8 -43 9 35 5 156 -8 243 -42 327 -128 89 -90 135 -176
163 -300 4 -20 11 -27 23 -25 14 3 16 13 14 48 -4 64 23 102 100 141 151 76
263 180 323 300 100 198 83 452 -38 597 -43 51 -44 50 -16 -7 33 -70 45 -200
25 -300 -33 -178 -171 -393 -315 -494 l-45 -30 56 69 c225 278 249 585 89
1142 -78 269 -152 581 -222 937 -59 297 -83 384 -156 570 -104 263 -171 373
-313 516 -134 134 -263 218 -435 282 -224 83 -436 112 -640 86z m1175 -505
c68 -85 114 -166 168 -294 41 -99 112 -310 111 -332 0 -7 -22 50 -48 127 -71
211 -133 345 -199 433 -16 21 -17 19 -17 -58 0 -78 0 -79 -18 -57 -22 28 -18
17 41 -106 54 -113 53 -123 -1 -26 -23 43 -50 88 -59 100 -17 24 -17 24 -7
-11 12 -46 12 -46 -11 -19 l-21 24 7 -35 c4 -19 27 -84 51 -144 24 -59 42
-110 40 -112 -2 -3 -10 10 -17 28 -44 109 -134 267 -147 255 -2 -2 9 -30 23
-63 36 -80 94 -225 94 -233 0 -3 -32 59 -71 139 -38 79 -72 146 -74 149 -3 2
-16 -6 -29 -18 l-24 -22 -58 24 c-114 48 -111 50 -61 -50 90 -179 189 -448
282 -768 26 -88 69 -230 95 -316 27 -86 62 -226 79 -310 32 -165 57 -347 49
-355 -3 -2 -8 24 -12 58 -12 109 -75 404 -111 521 -19 61 -60 198 -91 302
-149 508 -248 780 -318 870 -14 19 -15 18 -6 -15 14 -49 13 -49 -17 -7 -34 48
-86 81 -119 74 -20 -3 -27 1 -35 20 -5 13 -9 27 -9 29 0 3 25 2 55 -1 l56 -7
-7 43 c-4 24 -11 54 -15 67 -13 35 -3 26 30 -28 24 -39 38 -51 69 -59 86 -24
102 -24 122 -6 27 25 25 38 -15 100 -19 30 -33 55 -31 55 2 0 19 -20 39 -45
26 -34 36 -41 41 -30 3 9 18 15 36 15 16 0 30 4 30 9 0 4 -23 39 -51 77 l-52
69 69 -67 c92 -90 92 -90 55 -33 -33 51 -10 32 36 -30 l22 -30 1 64 c0 48 -5
72 -22 100 -34 55 2 22 72 -65z m-925 -126 c26 -51 32 -56 56 -51 23 4 28 0
47 -44 11 -26 19 -49 17 -51 -2 -2 -17 4 -33 12 -22 11 -31 13 -34 4 -3 -7
-14 8 -26 33 -12 25 -40 69 -61 98 l-39 52 -11 -34 c-10 -29 -8 -42 9 -83 l21
-49 -25 30 c-30 35 -31 32 -11 -25 20 -57 19 -61 -7 -20 -13 22 -23 30 -26 21
-3 -10 -6 -10 -12 -1 -11 18 -30 3 -30 -25 l0 -24 -25 24 c-16 17 -35 25 -59
25 -27 0 -38 6 -54 32 l-20 32 24 31 c28 38 30 52 7 85 l-17 25 22 -19 c14
-12 29 -16 46 -12 25 6 25 7 11 49 l-15 42 34 -37 c18 -21 36 -38 41 -38 4 0
20 9 37 21 28 20 29 22 12 43 -9 11 8 -4 37 -35 30 -30 68 -80 84 -111z m-335
-55 c30 -49 69 -137 85 -193 l7 -25 -27 25 -27 25 6 -65 6 -65 -24 65 -24 65
-1 -60 -1 -60 -31 53 c-17 28 -33 52 -36 52 -3 0 -2 -24 1 -52 l6 -53 -15 39
c-19 49 -19 49 -44 41 -14 -4 -21 -15 -22 -33 -1 -17 -3 -21 -6 -9 -5 21 -45
43 -96 52 -31 6 -38 12 -46 43 -6 19 -8 39 -6 43 3 4 26 15 51 25 41 15 45 20
40 43 -4 21 -3 20 9 -6 8 -18 18 -33 22 -33 16 0 43 35 43 56 0 17 4 21 19 17
11 -3 22 -12 24 -22 3 -9 5 -2 6 14 1 26 -9 66 -36 160 -8 27 78 -77 117 -142z
m-742 105 c-27 -41 -91 -191 -130 -303 -31 -90 -38 -103 -38 -72 0 20 -5 37
-11 37 -6 0 -8 8 -4 20 6 18 4 19 -25 8 -17 -6 -36 -21 -42 -34 -8 -17 -19
-24 -40 -24 -15 0 -28 2 -28 6 0 21 142 274 154 274 2 0 -19 -43 -46 -96 -27
-53 -47 -99 -44 -101 15 -15 80 46 126 118 59 94 128 189 136 189 4 0 0 -10
-8 -22z m-365 -35 c-22 -27 -54 -69 -72 -95 l-32 -48 33 0 c26 0 38 7 56 33
12 17 34 46 49 62 l26 30 -18 -30 c-10 -16 -29 -46 -41 -65 -21 -31 -22 -35
-8 -43 10 -6 19 -6 23 0 49 71 73 103 78 103 3 0 -1 -10 -9 -22 -8 -13 -29
-48 -47 -79 l-31 -56 33 5 c17 2 40 14 50 26 15 17 14 13 -3 -23 -12 -24 -38
-85 -57 -135 -19 -50 -36 -92 -38 -94 -1 -2 -1 19 2 45 l4 48 -20 -25 -21 -25
0 28 c0 18 -4 26 -11 21 -8 -4 -9 4 -5 27 l7 34 -23 -40 c-12 -22 -34 -74 -49
-115 -16 -41 -28 -70 -28 -64 -1 10 32 123 45 158 3 8 -9 13 -33 14 -20 2 -38
4 -40 5 -1 1 7 22 18 46 11 24 18 46 16 48 -4 3 -50 -97 -114 -247 -33 -76
-21 -13 18 95 16 44 23 72 15 61 -14 -17 -15 -15 -11 22 6 69 42 122 159 234
61 59 113 107 114 107 2 1 -14 -20 -35 -46z m569 -184 l3 -136 -17 36 -18 36
3 -32 c4 -41 -1 -42 -15 -2 -9 25 -14 30 -34 25 -51 -13 -75 -27 -84 -48 l-9
-23 0 23 c-1 23 -3 24 -51 17 -45 -6 -52 -4 -69 16 -17 21 -17 25 -2 72 8 27
21 51 27 54 7 2 30 -5 53 -16 22 -12 44 -21 49 -21 4 0 16 32 26 70 24 89 32
85 11 -5 -9 -37 -14 -69 -12 -72 3 -2 23 0 44 6 38 10 40 13 64 91 27 92 27
93 31 -91z m222 -7 c31 -130 32 -136 6 -94 -19 31 -22 32 -89 32 -46 0 -71 4
-74 13 -3 6 -6 1 -7 -13 -2 -38 -38 66 -39 114 l-1 39 38 -6 c137 -21 132 -21
132 2 0 41 9 19 34 -87z m-85 -426 c22 -44 53 -104 70 -132 l30 -52 -27 -5
c-34 -7 -42 3 -83 102 -33 78 -89 287 -88 325 0 11 13 -19 30 -68 16 -48 47
-125 68 -170z m-862 82 c-3 -8 -6 -5 -6 6 -1 11 2 17 5 13 3 -3 4 -12 1 -19z
m2832 -103 c-2 -17 -27 69 -27 90 0 11 6 -2 14 -30 7 -27 13 -54 13 -60z
m-2302 -212 c21 -16 43 -32 48 -36 6 -3 42 3 80 14 90 25 94 24 63 -8 -14 -16
-31 -39 -38 -51 -11 -22 -10 -23 11 -17 12 4 49 25 82 46 33 21 91 49 128 61
l69 22 28 -31 27 -32 147 6 147 6 3 46 3 46 15 -50 16 -50 69 -12 c38 -7 73
-17 79 -23 16 -16 10 -292 -9 -415 -9 -60 -32 -191 -50 -290 -74 -393 -100
-636 -77 -735 l11 -45 -47 -42 c-26 -23 -50 -42 -53 -43 -3 0 -18 23 -33 50
-36 65 -116 166 -158 196 -38 28 -57 29 -186 8 -203 -33 -316 -19 -362 46 -28
40 -161 285 -193 357 -57 129 -78 261 -58 383 7 44 7 45 13 13 4 -18 28 -52
58 -82 54 -54 64 -89 35 -127 -22 -29 -18 -55 16 -108 20 -33 25 -47 14 -43
-13 5 -14 3 -5 -13 5 -10 10 -27 10 -36 0 -19 57 -84 73 -84 5 0 4 6 -2 14 -9
11 -5 15 21 22 33 8 33 8 -14 11 -54 5 -75 22 -59 51 16 30 123 42 191 23 l25
-7 -23 -8 c-13 -4 -21 -10 -19 -12 9 -10 87 29 87 43 0 9 -6 12 -18 9 -11 -4
-49 10 -94 34 -42 22 -82 40 -90 39 -7 0 1 -6 17 -12 l30 -11 -30 -6 c-21 -4
-29 -11 -27 -23 2 -9 -2 -17 -8 -17 -6 0 -8 5 -5 10 3 6 0 10 -7 10 -9 0 -9 3
2 10 13 8 12 10 -4 10 -13 0 -16 5 -12 16 4 11 2 15 -7 11 -7 -3 -19 4 -26 15
-17 27 -26 16 -11 -14 11 -22 10 -22 -4 -4 -17 21 -15 50 4 86 16 30 6 63 -31
97 -38 35 -79 103 -79 130 0 12 15 32 38 48 50 38 69 61 98 120 27 57 30 104
10 143 -19 36 -65 78 -99 91 -41 16 -24 -5 24 -30 38 -19 79 -69 79 -97 0 -7
-18 1 -42 19 -39 28 -48 30 -94 25 -56 -6 -65 -1 -83 47 -9 24 -8 28 21 43 19
10 47 14 75 12 43 -3 44 -3 24 13 -12 10 -21 20 -21 22 0 6 40 19 107 37 l43
11 -24 38 c-24 37 -76 153 -76 167 0 4 22 -24 49 -63 27 -39 67 -84 88 -100z
m1580 -188 c40 -17 73 -43 73 -57 0 -12 -48 -10 -72 3 -26 14 -119 15 -145 1
-23 -13 -65 -5 -60 12 6 19 90 56 129 56 21 0 55 -7 75 -15z m-1760 -135 c4
-8 8 -26 9 -38 2 -13 10 -35 18 -48 15 -21 15 -24 -2 -33 -36 -19 -62 23 -62
103 0 34 5 56 13 59 6 2 13 -3 15 -12 2 -9 6 -23 9 -31z m-9 -153 c10 4 6 -3
-8 -15 -26 -21 -37 -14 -25 16 5 11 9 13 12 5 2 -7 12 -9 21 -6z m2119 -559
c-1 -40 -3 -10 -3 67 0 77 1 110 3 73 2 -37 2 -100 0 -140z m514 -30 c77 -209
74 -361 -10 -525 -23 -45 -137 -171 -126 -138 81 224 99 316 98 510 0 123 -14
245 -37 320 -13 41 47 -93 75 -167z m-1161 27 c1 -38 5 -96 9 -127 l7 -57 -81
-50 c-44 -27 -81 -48 -82 -47 -2 2 26 88 62 192 36 104 65 191 66 194 0 3 4
-4 9 -15 5 -11 9 -51 10 -90z m637 -122 c-3 -10 -5 -2 -5 17 0 19 2 27 5 18 2
-10 2 -26 0 -35z m260 0 c-3 -10 -5 -2 -5 17 0 19 2 27 5 18 2 -10 2 -26 0
-35z m-370 -35 c-3 -8 -6 -5 -6 6 -1 11 2 17 5 13 3 -3 4 -12 1 -19z m-10 -40
c-3 -8 -6 -5 -6 6 -1 11 2 17 5 13 3 -3 4 -12 1 -19z m-10 -40 c-3 -8 -6 -5
-6 6 -1 11 2 17 5 13 3 -3 4 -12 1 -19z m-458 -142 c16 -71 8 -91 -52 -129
-56 -36 -108 -36 -136 0 -33 40 -37 71 -14 95 35 35 178 115 184 104 3 -6 11
-37 18 -70z m-1418 -292 c-38 -234 -154 -379 -288 -359 -39 6 -103 46 -103 64
0 5 34 11 75 14 104 8 156 34 210 109 44 59 105 199 105 239 0 12 3 19 6 16 4
-4 1 -41 -5 -83z m1042 -63 c34 -38 176 -140 203 -147 13 -3 24 -10 24 -15 0
-25 -287 -186 -456 -256 -7 -2 -14 10 -18 30 -3 19 -40 87 -82 152 -42 65 -78
123 -80 129 -3 8 19 17 57 25 59 12 67 17 167 113 l104 101 29 -54 c17 -29 40
-64 52 -78z"/>
<path d="M1345 2359 c-24 -6 -51 -22 -67 -41 -33 -36 -33 -37 -10 -33 9 2 21
4 25 4 5 1 6 5 2 10 -3 5 -1 12 4 15 13 9 7 -19 -8 -38 -7 -9 -10 -16 -6 -16
4 0 1 -8 -6 -17 -12 -15 -12 -16 1 -8 9 5 7 -1 -5 -15 -17 -20 -18 -23 -2 -17
12 4 17 1 17 -11 0 -11 7 -6 19 14 18 29 61 68 68 61 1 -2 -3 -18 -10 -36 -10
-28 -10 -34 6 -46 10 -7 15 -19 11 -28 -9 -25 39 -67 78 -67 55 0 119 60 87
81 -11 8 -11 11 3 19 10 7 15 17 11 27 -5 13 2 12 35 -7 46 -26 51 -43 24 -76
-46 -58 -156 -84 -251 -60 -35 9 -70 15 -79 15 -9 -1 -3 -4 13 -8 17 -4 29
-12 28 -19 -2 -6 4 -9 12 -6 8 4 15 2 15 -4 0 -5 11 -8 25 -7 14 2 25 -1 25
-7 0 -7 5 -7 13 1 10 8 17 7 25 -1 7 -7 12 -8 12 -2 0 6 18 9 40 8 22 -1 40 3
40 8 0 6 11 7 25 4 18 -5 24 -3 23 6 -2 8 6 12 22 11 14 -1 19 0 13 3 -21 9
-15 24 10 24 18 0 19 2 7 10 -12 7 -8 10 15 11 26 0 27 2 10 9 -18 7 -17 9 13
20 21 8 30 15 22 20 -7 4 3 13 27 23 29 12 33 16 16 16 -13 1 -23 6 -23 11 0
6 -11 10 -25 10 -14 0 -25 6 -25 13 -1 18 -156 87 -212 94 -53 6 -63 19 -20
26 19 3 15 4 -13 4 -22 1 -58 -3 -80 -8z"/>
<path d="M1478 2353 c7 -3 16 -2 19 1 4 3 -2 6 -13 5 -11 0 -14 -3 -6 -6z"/>
<path d="M878 2213 c7 -3 16 -2 19 1 4 3 -2 6 -13 5 -11 0 -14 -3 -6 -6z"/>
<path d="M971 1781 c13 -11 26 -18 28 -15 7 7 -21 34 -36 34 -10 0 -8 -6 8
-19z"/>
<path d="M987 1445 c-4 -8 -2 -17 3 -20 6 -4 10 -4 10 -1 0 2 3 11 6 20 3 9 2
16 -4 16 -5 0 -12 -7 -15 -15z"/>
<path d="M1240 3730 c-8 -5 -10 -10 -5 -10 6 0 17 5 25 10 8 5 11 10 5 10 -5
0 -17 -5 -25 -10z"/>
</g>
</svg>
