<?xml version="1.0" standalone="no"?>
<!DOCTYPE svg PUBLIC "-//W3C//DTD SVG 20010904//EN"
 "http://www.w3.org/TR/2001/REC-SVG-20010904/DTD/svg10.dtd">
<svg version="1.0" xmlns="http://www.w3.org/2000/svg"
 width="200.000000pt" height="200.000000pt" viewBox="0 0 200.000000 200.000000"
 preserveAspectRatio="xMidYMid meet">

<g transform="translate(0.000000,200.000000) scale(0.100000,-0.100000)"
fill="#000000" stroke="none">
<path d="M225 1986 c-96 -30 -168 -96 -201 -182 -18 -47 -19 -86 -19 -814 l0
-765 24 -49 c31 -63 90 -122 150 -150 46 -21 52 -21 807 -24 760 -2 762 -2
820 19 77 29 144 96 173 173 21 58 21 60 19 820 -3 755 -3 761 -24 807 -28 60
-86 118 -149 149 l-50 25 -755 2 c-591 2 -764 -1 -795 -11z m799 -418 c-28
-48 -99 -140 -114 -148 -11 -6 -132 -10 -289 -10 l-271 0 0 85 0 85 341 0
c269 0 339 -3 333 -12z m655 5 c0 -5 -183 -267 -407 -583 l-407 -575 -273 -3
c-198 -2 -273 1 -270 9 2 6 186 269 408 585 l405 574 273 0 c149 0 272 -3 271
-7z m-24 -1073 l0 -85 -342 -3 c-189 -1 -343 0 -343 3 0 16 114 157 133 165
12 5 141 8 287 7 l265 -2 0 -85z"/>
</g>
</svg>
