<?xml version="1.0" standalone="no"?>
<!DOCTYPE svg PUBLIC "-//W3C//DTD SVG 20010904//EN"
 "http://www.w3.org/TR/2001/REC-SVG-20010904/DTD/svg10.dtd">
<svg version="1.0" xmlns="http://www.w3.org/2000/svg"
 width="128.000000pt" height="128.000000pt" viewBox="0 0 128.000000 128.000000"
 preserveAspectRatio="xMidYMid meet">

<g transform="translate(0.000000,128.000000) scale(0.100000,-0.100000)"
fill="#000000" stroke="none">
<path d="M0 640 l0 -640 640 0 640 0 0 640 0 640 -640 0 -640 0 0 -640z m241
67 l86 -169 89 169 90 168 57 3 c31 2 57 -1 57 -5 0 -4 -57 -112 -128 -238
l-127 -230 -41 -3 c-42 -3 -42 -3 -77 60 -53 96 -217 408 -217 414 0 3 28 4
62 2 l63 -3 86 -168z m639 87 c80 -86 81 -86 97 -65 8 12 40 51 70 87 l54 64
65 0 c35 0 64 -4 64 -9 0 -5 -3 -11 -7 -13 -14 -6 -193 -206 -193 -215 0 -4
50 -58 110 -118 61 -60 110 -112 110 -115 0 -3 -33 -4 -72 -3 l-73 1 -78 84
-78 83 -78 -84 -77 -85 -67 0 c-37 -1 -67 1 -67 4 0 3 51 55 112 117 l113 113
-113 113 c-61 62 -112 116 -112 120 0 4 31 7 69 7 l69 0 82 -86z"/>
</g>
</svg>
