<?xml version="1.0" standalone="no"?>
<!DOCTYPE svg PUBLIC "-//W3C//DTD SVG 20010904//EN"
 "http://www.w3.org/TR/2001/REC-SVG-20010904/DTD/svg10.dtd">
<svg version="1.0" xmlns="http://www.w3.org/2000/svg"
 width="200.000000pt" height="200.000000pt" viewBox="0 0 200.000000 200.000000"
 preserveAspectRatio="xMidYMid meet">

<g transform="translate(0.000000,200.000000) scale(0.100000,-0.100000)"
fill="#000000" stroke="none">
<path d="M1 1870 c0 -93 4 -130 12 -130 9 0 9 -2 0 -8 -14 -9 -13 -52 0 -52 5
0 4 -6 -2 -14 -8 -10 -11 -73 -10 -210 2 -160 5 -196 16 -196 8 0 11 5 7 13
-5 9 -4 9 6 0 14 -13 6 -33 -14 -33 -10 0 -13 -61 -13 -285 -1 -199 2 -283 9
-278 7 4 8 1 2 -8 -13 -21 -16 -51 -4 -44 5 3 10 -2 11 -12 0 -16 1 -16 9 2 8
18 9 18 9 2 1 -10 -9 -22 -22 -27 -12 -5 -16 -9 -9 -9 6 -1 12 -6 12 -12 0 -5
-4 -7 -10 -4 -6 3 -10 -4 -9 -17 0 -13 3 -17 6 -10 6 16 30 15 36 -2 4 -10 -2
-16 -15 -18 -12 -2 -22 -12 -24 -23 l-3 -20 16 20 c15 20 15 20 8 -3 -5 -19
-3 -22 17 -20 28 4 40 18 28 33 -5 6 -11 32 -14 58 -4 43 -3 46 15 36 10 -5
19 -17 19 -25 0 -8 -4 -12 -10 -9 -5 3 -10 1 -10 -4 0 -6 5 -11 10 -11 6 0 10
-7 10 -16 0 -13 4 -11 18 6 l18 22 1 -23 c1 -13 -2 -28 -7 -34 -7 -8 -1 -12
20 -12 18 0 30 6 30 14 0 7 -5 13 -11 13 -5 0 -7 -5 -3 -12 4 -7 3 -8 -4 -4
-7 4 -12 13 -12 21 0 23 22 29 37 10 11 -16 13 -16 13 -3 0 12 9 16 31 15 37
-2 63 -32 40 -46 -7 -5 -9 -11 -4 -14 6 -4 15 5 21 18 7 14 8 25 3 25 -4 0 -8
14 -9 30 0 17 4 28 9 24 5 -3 7 -10 4 -15 -4 -5 1 -9 10 -9 9 0 14 4 10 9 -3
5 0 13 6 17 7 4 9 3 5 -4 -3 -6 -2 -13 4 -17 6 -4 8 -11 4 -16 -3 -5 -10 -6
-16 -3 -12 8 -1 -35 13 -51 13 -13 11 -43 -3 -47 -9 -3 -9 -6 0 -12 7 -4 14 5
20 26 6 25 5 34 -5 36 -18 5 -16 18 4 42 24 27 36 25 29 -4 -7 -27 1 -56 15
-56 5 0 4 9 -3 20 -10 16 -10 23 4 36 20 20 45 9 27 -12 -6 -8 -9 -17 -5 -21
3 -3 6 -1 6 5 0 19 28 14 33 -5 3 -10 5 -4 4 12 -1 17 -6 33 -10 36 -5 3 -1 9
8 12 9 4 13 3 10 -3 -3 -6 -1 -10 6 -10 6 0 9 -8 6 -20 -3 -11 -1 -20 4 -20 5
0 9 12 9 26 0 15 4 23 11 19 6 -4 8 -13 5 -21 -3 -8 -1 -14 4 -14 6 0 10 -7
10 -15 0 -8 -9 -15 -21 -15 -11 0 -18 -4 -15 -8 3 -5 19 -7 37 -4 31 5 32 4
25 -23 -6 -23 -4 -26 6 -19 7 5 20 9 28 8 8 -1 23 -2 33 -3 15 -1 15 -4 5 -21
-10 -15 -10 -22 -1 -31 9 -9 11 -7 7 7 -3 12 3 24 17 32 16 10 19 10 13 1 -5
-9 -2 -10 9 -6 10 3 17 2 17 -2 0 -5 15 -6 33 -2 39 9 67 4 67 -12 0 -7 4 -6
10 3 8 13 10 12 10 -2 0 -13 -8 -18 -27 -19 -22 -1 -23 -2 -8 -6 11 -3 23 -10
27 -16 7 -11 58 -17 58 -6 0 13 -28 17 -39 6 -8 -8 -11 -8 -11 1 0 6 12 23 26
38 15 14 24 19 21 11 -6 -16 18 -31 33 -22 5 3 11 1 15 -5 10 -17 25 -11 18 7
-3 10 -3 15 2 11 4 -4 11 -28 15 -54 6 -41 5 -47 -14 -54 -15 -6 -16 -9 -5 -9
25 -1 35 19 34 65 -1 22 4 41 9 42 66 7 94 16 89 28 -3 8 -16 14 -29 14 -14 0
-24 6 -24 14 0 8 10 14 25 14 14 0 25 -6 25 -13 0 -8 4 -15 9 -17 5 -1 13 -16
16 -31 7 -27 6 -28 -29 -25 -24 1 -41 -3 -46 -12 -9 -14 -14 -7 -11 13 1 5 -3
6 -8 3 -4 -3 -8 -17 -8 -32 0 -15 3 -21 7 -14 4 6 21 12 38 12 17 1 30 4 27 7
-2 4 5 8 16 8 10 1 19 -2 19 -8 0 -5 -4 -9 -9 -9 -5 0 -12 -7 -15 -16 -4 -9
-2 -13 5 -8 6 4 16 0 21 -7 6 -10 7 -6 3 11 -6 20 -5 23 6 13 7 -7 17 -13 23
-13 5 0 1 6 -10 14 -10 8 -15 18 -11 22 4 5 12 3 16 -5 6 -8 10 -3 14 18 6 28
37 46 37 21 0 -5 5 -10 11 -10 5 0 7 5 4 10 -3 6 1 10 10 10 9 0 13 -4 10 -10
-3 -5 1 -10 9 -10 9 0 16 9 16 20 0 14 -5 18 -16 13 -12 -5 -15 0 -12 23 3 25
7 29 36 29 27 1 37 -5 48 -27 8 -14 20 -30 26 -34 10 -6 10 -5 0 8 -13 16 -7
48 9 48 5 0 9 -11 9 -25 0 -14 4 -25 9 -25 5 0 11 -8 13 -18 4 -16 -1 -18 -41
-18 -40 1 -46 -2 -46 -19 0 -15 8 -21 33 -23 23 -2 32 1 32 12 0 10 6 13 15
10 8 -4 15 -2 15 4 0 14 28 23 35 11 4 -5 -8 -15 -26 -21 -31 -11 -32 -12 -10
-20 16 -5 21 -13 17 -24 -3 -9 -6 -20 -6 -25 0 -5 -7 -9 -17 -9 -9 0 -14 -3
-10 -6 11 -11 46 7 40 22 -3 8 1 14 8 14 10 0 10 3 1 12 -15 15 -16 31 0 22 6
-4 8 -3 5 3 -4 6 5 15 18 21 17 8 25 8 25 1 0 -6 4 -8 9 -4 5 3 12 1 16 -5 3
-5 0 -10 -8 -10 -21 0 -28 -47 -8 -53 18 -4 41 15 41 35 -1 8 -5 7 -14 -5 -21
-27 -28 -20 -10 9 18 26 14 35 -20 47 -14 5 3 27 19 27 9 0 12 -6 9 -17 -5
-15 -4 -15 4 -3 15 20 5 30 -29 30 -26 0 -29 -3 -24 -20 5 -14 2 -20 -9 -20
-10 0 -16 9 -16 23 -1 20 -2 20 -11 5 -13 -24 -29 -23 -29 2 0 11 5 20 12 20
6 0 8 3 4 8 -4 4 -12 7 -17 7 -5 0 -9 3 -9 8 0 4 0 12 0 19 0 9 3 9 12 0 17
-17 56 -15 74 3 17 17 34 20 34 5 0 -5 7 -7 15 -4 10 4 15 0 15 -11 0 -13 -6
-16 -21 -12 -16 4 -19 3 -11 -5 27 -27 48 -17 43 21 -2 7 4 11 11 9 7 -3 12
-14 10 -24 -3 -18 -3 -18 12 1 8 11 16 16 16 12 0 -4 9 -3 20 3 16 8 22 8 26
-4 4 -10 16 -14 39 -11 19 3 37 1 40 -5 7 -11 -32 -33 -45 -25 -5 3 -11 1 -14
-3 -3 -5 -25 -6 -50 -2 -47 7 -81 -4 -70 -22 4 -6 0 -14 -7 -19 -10 -6 -8 -8
8 -6 12 0 21 6 20 12 -1 5 12 9 31 7 21 -1 31 2 27 8 -8 12 5 13 24 1 8 -5 10
-14 6 -21 -5 -9 -4 -11 3 -6 8 5 12 0 12 -13 0 -13 5 -18 13 -15 8 3 20 -2 27
-11 18 -22 35 -19 37 7 1 14 -1 18 -6 10 -6 -9 -13 -9 -34 1 -34 15 -35 35 -2
35 14 0 25 -5 25 -10 0 -5 7 -2 16 6 22 22 33 20 27 -6 -4 -20 -3 -21 7 -5 6
9 18 17 25 17 19 0 19 8 1 26 -8 7 -16 10 -18 5 -2 -4 -14 -11 -28 -14 -23 -6
-25 -3 -25 26 0 38 19 55 51 49 35 -6 29 -22 -8 -22 -23 0 -29 -3 -19 -9 7 -5
21 -7 31 -4 9 3 25 -3 34 -12 13 -13 20 -14 31 -5 18 15 47 6 71 -22 19 -21
19 -21 -11 -15 -32 6 -85 -1 -85 -12 0 -3 27 -5 60 -4 47 1 60 -2 60 -13 0 -8
-6 -14 -12 -13 -27 3 -38 -2 -38 -17 0 -8 -4 -12 -10 -9 -6 3 -7 -1 -4 -9 3
-9 10 -13 15 -10 5 3 9 -2 9 -11 0 -9 -4 -13 -10 -10 -5 3 -10 -1 -10 -9 0
-19 11 -20 29 -3 10 8 12 8 7 0 -3 -6 -2 -14 4 -18 12 -8 50 12 50 27 0 7 -5
6 -15 -2 -12 -10 -15 -10 -15 3 0 9 -9 21 -21 28 -15 8 -18 14 -10 22 7 7 15
5 28 -9 10 -11 15 -15 11 -10 -14 18 -9 26 16 26 15 0 26 -7 29 -20 3 -11 11
-20 19 -20 10 0 10 2 -1 9 -8 5 -11 16 -8 25 7 18 23 21 32 6 3 -6 10 -10 15
-10 10 0 8 19 -4 39 -5 8 -4 16 4 21 8 5 7 9 -4 13 -20 8 -21 47 -1 47 13 0
13 3 3 21 -11 17 -11 23 0 26 8 3 5 10 -10 23 l-22 17 22 7 c22 7 23 11 21
137 0 71 -5 127 -9 124 -15 -9 -22 15 -9 31 10 12 9 13 -4 9 -20 -8 -31 11
-18 32 6 10 11 13 11 7 0 -7 7 -15 16 -18 13 -5 15 4 13 57 -1 34 -7 65 -13
69 -8 5 -7 11 2 20 13 13 17 72 5 65 -5 -3 -8 6 -8 19 0 13 3 24 8 24 4 0 7 9
7 21 0 11 -4 18 -8 15 -5 -3 -9 1 -9 9 0 8 4 15 9 15 5 0 8 72 7 159 -1 144
-2 159 -17 154 -13 -4 -14 -3 -3 5 21 15 23 62 3 62 -15 1 -16 2 -1 13 12 9
16 30 16 79 0 65 -1 67 -22 62 -17 -4 -24 0 -28 15 -3 14 -1 19 6 15 7 -3 3 2
-7 10 -11 9 -16 16 -10 16 5 1 -1 9 -14 20 -13 11 -18 21 -12 25 5 3 10 1 10
-4 0 -6 7 -11 16 -11 8 0 13 -4 10 -9 -9 -14 28 -41 43 -32 9 6 10 11 2 15 -6
4 -11 13 -11 19 0 7 4 6 10 -3 7 -11 10 -7 10 19 0 25 -3 32 -15 27 -9 -3 -15
0 -15 9 0 9 6 12 15 9 16 -6 19 4 9 30 -7 17 -34 22 -34 6 0 -5 7 -10 15 -10
8 0 15 -4 15 -9 0 -5 -8 -8 -17 -7 -12 1 -19 -7 -21 -22 -3 -20 -6 -21 -19
-10 -9 7 -18 12 -20 11 -11 -9 -33 -1 -33 13 0 8 -4 13 -9 9 -5 -3 -12 -1 -16
5 -3 5 -1 10 6 10 9 0 9 3 0 14 -10 12 -9 13 8 9 11 -3 17 -11 15 -17 -3 -7 2
-18 10 -25 13 -11 17 -9 28 13 10 24 9 28 -10 42 -12 8 -22 20 -22 26 0 6 8 4
18 -5 10 -10 24 -17 31 -17 7 0 9 -5 5 -12 -5 -8 -2 -9 10 -5 10 4 23 7 29 7
7 0 13 19 14 46 l2 46 -37 -6 c-20 -3 -41 -7 -47 -7 -5 -1 -27 1 -48 5 -25 4
-36 2 -32 -4 3 -5 1 -10 -5 -10 -6 0 -8 -5 -4 -12 4 -7 3 -8 -4 -4 -7 4 -12
15 -13 24 0 11 -2 13 -6 4 -4 -10 -8 -10 -20 -1 -12 10 -16 10 -24 -2 -6 -10
-9 -10 -9 -1 0 18 -76 16 -83 -3 -4 -8 -1 -18 5 -21 7 -4 14 -2 16 6 3 9 9 5
18 -11 l13 -24 1 25 c1 24 1 24 15 6 7 -10 18 -15 24 -11 6 3 11 2 11 -4 0
-11 -32 -21 -62 -19 -10 1 -14 7 -11 17 5 13 3 14 -8 4 -17 -17 -29 -16 -29 2
0 7 -8 19 -17 25 -17 11 -17 11 0 6 11 -3 15 -2 12 4 -7 11 -45 14 -45 3 0 -4
10 -18 23 -31 12 -14 15 -21 7 -16 -8 4 -27 7 -42 5 -14 -1 -29 2 -32 7 -3 5
6 7 19 4 31 -6 33 6 3 17 -17 7 -28 4 -41 -10 -20 -21 -13 -44 10 -35 9 4 13
1 11 -6 -6 -18 -69 -16 -76 2 -3 8 -12 21 -19 29 -9 9 -10 17 -4 25 8 9 0 13
-27 14 -27 2 -33 0 -22 -8 13 -9 13 -10 0 -10 -12 0 -12 -2 -1 -9 9 -6 10 -11
2 -15 -6 -4 -14 -1 -17 8 -3 9 -12 12 -22 9 -11 -5 -14 -2 -9 10 5 13 1 16
-18 15 -19 -2 -22 -5 -14 -20 14 -26 -5 -22 -24 5 -13 17 -18 19 -25 8 -7 -9
-12 -10 -16 -2 -11 16 -89 14 -83 -2 3 -9 -7 -14 -34 -16 -28 -1 -41 3 -45 14
-8 21 -25 19 -18 -2 5 -17 5 -17 -9 0 -15 18 -32 24 -22 7 3 -5 1 -10 -4 -10
-6 0 -11 5 -11 10 0 6 -13 10 -29 10 -17 0 -33 -4 -36 -10 -3 -5 -13 -10 -21
-10 -8 0 -12 5 -9 10 8 13 -8 13 -22 -1 -8 -8 -13 -8 -17 0 -4 6 -23 11 -43
11 -28 0 -34 -3 -29 -16 4 -10 2 -14 -6 -11 -7 2 -12 9 -11 15 2 7 -135 10
-412 11 l-415 1 1 -130z m1248 111 c12 -8 12 -14 3 -33 l-12 -23 6 24 c5 17 3
21 -6 16 -8 -5 -11 -4 -6 3 3 5 0 13 -6 15 -7 3 -8 6 -3 6 6 0 16 -3 24 -8z
m-650 -33 c-6 -12 -14 -16 -18 -11 -3 6 -15 9 -26 7 -19 -3 -19 -2 -2 11 11 7
26 11 35 8 11 -5 13 -3 7 7 -5 9 -4 11 3 6 9 -5 9 -13 1 -28z m129 7 c-3 -3
-9 2 -12 12 -6 14 -5 15 5 6 7 -7 10 -15 7 -18z m52 17 c0 -5 -7 -17 -15 -28
-15 -19 -16 -19 -13 1 3 23 28 47 28 27z m1160 -2 c0 -5 -4 -10 -10 -10 -5 0
-10 5 -10 10 0 6 5 10 10 10 6 0 10 -4 10 -10z m-1796 -16 c3 -8 2 -12 -4 -9
-6 3 -10 10 -10 16 0 14 7 11 14 -7z m276 12 c0 -3 -4 -8 -10 -11 -5 -3 -10
-1 -10 4 0 6 5 11 10 11 6 0 10 -2 10 -4z m526 -11 c-8 -8 -17 -15 -20 -15 -3
0 -6 7 -6 15 0 9 9 15 21 15 18 0 19 -2 5 -15z m139 5 c3 -5 -1 -10 -10 -10
-9 0 -13 5 -10 10 3 6 8 10 10 10 2 0 7 -4 10 -10z m-962 -13 c6 -15 -29 -21
-38 -6 -4 5 2 6 11 2 12 -4 15 -3 10 5 -4 7 -3 12 2 12 6 0 12 -6 15 -13z
m572 -29 c-12 -16 -16 -18 -11 -5 3 10 6 26 6 35 0 12 3 13 11 5 8 -8 7 -17
-6 -35z m115 27 c7 -9 8 -15 2 -15 -5 0 -12 7 -16 15 -3 8 -4 15 -2 15 2 0 9
-7 16 -15z m354 -1 c9 -24 2 -26 -12 -4 -7 11 -8 20 -3 20 5 0 12 -7 15 -16z
m234 4 c-2 -7 5 -12 15 -12 14 2 15 -1 6 -13 -10 -11 -14 -11 -20 -1 -5 7 -9
10 -9 6 0 -3 -3 -14 -7 -24 -5 -14 -2 -16 15 -12 16 4 19 2 15 -10 -5 -11 -3
-13 7 -7 9 5 11 4 6 -3 -9 -15 -36 -16 -36 -1 0 5 -4 8 -9 5 -4 -3 -17 1 -27
9 -17 13 -17 14 -2 15 10 0 19 11 23 30 6 28 28 45 23 18z m-763 -8 c3 -6 -1
-7 -9 -4 -18 7 -21 14 -7 14 6 0 13 -4 16 -10z m1165 6 c0 -2 -7 -9 -15 -16
-13 -11 -14 -10 -9 4 5 14 24 23 24 12z m-670 -16 c0 -5 -4 -10 -10 -10 -5 0
-10 5 -10 10 0 6 5 10 10 10 6 0 10 -4 10 -10z m-630 -10 c12 -7 12 -10 -4
-16 -18 -7 -18 -8 0 -21 15 -11 16 -15 5 -22 -8 -5 -14 -22 -15 -39 -1 -18 -6
-28 -13 -25 -8 3 -8 13 2 37 8 19 12 36 9 39 -8 8 -12 57 -5 57 3 0 13 -4 21
-10z m50 -6 c0 -8 -5 -12 -10 -9 -6 4 -8 11 -5 16 9 14 15 11 15 -7z m190 6
c0 -5 -7 -10 -15 -10 -8 0 -15 5 -15 10 0 6 7 10 15 10 8 0 15 -4 15 -10z
m193 -10 c-3 -11 -7 -20 -9 -20 -2 0 -4 9 -4 20 0 11 4 20 9 20 5 0 7 -9 4
-20z m157 -1 c0 -8 -14 -13 -32 -10 -4 0 -10 -8 -13 -19 -4 -11 -10 -20 -14
-20 -5 0 -2 15 7 34 11 24 20 32 33 29 11 -3 19 -9 19 -14z m260 12 c0 -6 -9
-8 -20 -6 -11 2 -20 -1 -20 -7 0 -6 -3 -9 -6 -5 -3 3 -3 10 1 16 8 14 45 15
45 2z m330 -3 c0 -5 5 -6 12 -2 6 4 8 3 5 -3 -6 -10 -67 -5 -67 6 0 3 11 7 25
7 14 1 25 -2 25 -8z m-1534 -5 c-10 -11 -36 -12 -36 -2 0 5 10 9 22 9 12 0 18
-3 14 -7z m759 -12 c-3 -6 -11 -11 -16 -11 -5 0 -4 6 3 14 14 16 24 13 13 -3z
m325 11 c0 -15 -22 -30 -36 -25 -24 9 -16 33 11 33 14 0 25 -4 25 -8z m376
-29 c2 -16 1 -16 -12 1 -8 11 -14 24 -14 30 0 16 24 -12 26 -31z m-1436 17 c0
-5 -5 -10 -11 -10 -5 0 -7 5 -4 10 3 6 8 10 11 10 2 0 4 -4 4 -10z m655 0 c-3
-5 -1 -10 4 -10 6 0 11 -5 11 -11 0 -8 -5 -8 -15 1 -13 11 -12 30 1 30 3 0 2
-4 -1 -10z m345 0 c0 -5 -5 -10 -11 -10 -5 0 -7 5 -4 10 3 6 8 10 11 10 2 0 4
-4 4 -10z m574 -20 c-9 -16 -17 -30 -18 -30 -5 0 0 36 8 48 15 25 24 11 10
-18z m-414 11 c0 -5 -7 -12 -16 -15 -14 -5 -15 -4 -4 9 14 17 20 19 20 6z
m195 -10 c-3 -6 -15 -11 -26 -11 -11 0 -18 4 -14 10 3 5 12 7 20 3 8 -3 15 1
15 8 0 7 3 10 6 6 3 -3 3 -10 -1 -16z m-915 -1 c0 -5 -4 -10 -9 -10 -6 0 -13
5 -16 10 -3 6 1 10 9 10 9 0 16 -4 16 -10z m157 -5 c4 -5 3 -7 -2 -3 -4 4 -15
2 -23 -5 -13 -9 -14 -9 -8 1 4 6 2 12 -3 12 -6 0 -11 -4 -11 -9 0 -5 -9 -7
-21 -4 -16 4 -17 8 -7 14 17 11 68 7 75 -6z m813 11 c0 -3 -4 -8 -10 -11 -5
-3 -10 -1 -10 4 0 6 5 11 10 11 6 0 10 -2 10 -4z m90 -6 c0 -5 8 -7 18 -4 13
5 14 4 3 -4 -7 -5 -10 -15 -7 -21 4 -6 1 -11 -8 -11 -10 0 -13 6 -9 18 6 15 5
15 -10 3 -13 -10 -14 -17 -7 -26 8 -10 8 -15 -1 -21 -7 -4 -9 -3 -5 4 3 5 2
12 -4 14 -7 2 -6 13 2 30 13 27 28 37 28 18z m-1520 -21 c0 -6 -4 -7 -10 -4
-5 3 -10 11 -10 16 0 6 5 7 10 4 6 -3 10 -11 10 -16z m790 15 c0 -3 -7 -12
-15 -20 -13 -14 -15 -13 -15 5 0 12 6 21 15 21 8 0 15 -3 15 -6z m-820 -14 c0
-5 -2 -10 -4 -10 -3 0 -8 5 -11 10 -3 6 -1 10 4 10 6 0 11 -4 11 -10z m670 0
c0 -5 -5 -10 -11 -10 -5 0 -7 5 -4 10 3 6 8 10 11 10 2 0 4 -4 4 -10z m563 2
c-9 -6 -7 -11 7 -20 16 -10 18 -9 13 5 -4 11 -3 14 5 9 18 -11 15 -47 -3 -40
-11 5 -13 2 -9 -10 3 -9 10 -13 15 -10 5 3 6 -3 2 -13 -9 -25 -33 -60 -33 -48
0 6 -5 3 -10 -5 -6 -9 -10 -11 -10 -3 0 7 -7 10 -17 6 -11 -4 -14 -3 -9 5 4 7
13 12 20 12 18 0 27 49 13 70 -12 20 -3 50 15 50 10 0 10 -2 1 -8z m477 -2 c0
-5 -4 -10 -10 -10 -5 0 -10 5 -10 10 0 6 5 10 10 10 6 0 10 -4 10 -10z m-295
-10 c-3 -5 -12 -10 -18 -10 -7 0 -6 4 3 10 19 12 23 12 15 0z m-815 -16 c0 -2
-9 -4 -21 -4 -11 0 -18 4 -14 10 5 8 35 3 35 -6z m495 0 c-9 -9 -19 -13 -23
-10 -3 4 0 11 8 16 24 15 33 11 15 -6z m648 -4 c-4 -16 -2 -19 11 -14 9 3 16
2 16 -4 0 -11 -18 -11 -37 1 -7 5 -13 4 -13 -1 0 -5 -7 -9 -15 -9 -22 0 -18
14 6 20 12 3 18 10 14 16 -3 6 0 11 8 11 10 0 13 -7 10 -20z m-307 -35 c2 -26
-1 -35 -12 -35 -12 0 -13 4 -4 21 8 14 8 24 1 33 -6 7 -8 16 -4 19 10 11 16
-1 19 -38z m-1206 19 c0 -8 -5 -12 -10 -9 -6 4 -8 11 -5 16 9 14 15 11 15 -7z
m55 6 c3 -5 1 -10 -4 -10 -6 0 -11 5 -11 10 0 6 2 10 4 10 3 0 8 -4 11 -10z
m49 -5 c-4 -8 -11 -15 -16 -15 -6 0 -5 6 2 15 7 8 14 15 16 15 2 0 1 -7 -2
-15z m116 11 c0 -3 -4 -8 -10 -11 -5 -3 -10 -1 -10 4 0 6 5 11 10 11 6 0 10
-2 10 -4z m1128 -28 c-7 -7 -20 -14 -28 -16 -9 -1 -5 6 9 18 25 22 43 20 19
-2z m-628 8 c0 -11 -19 -15 -25 -6 -3 5 1 10 9 10 9 0 16 -2 16 -4z m705 -6
c3 -5 -1 -10 -10 -10 -9 0 -13 5 -10 10 3 6 8 10 10 10 2 0 7 -4 10 -10z
m-1624 -13 c-1 -12 -15 -9 -19 4 -3 6 1 10 8 8 6 -3 11 -8 11 -12z m743 7 c9
-3 16 -11 16 -16 0 -6 -6 -5 -15 2 -8 6 -20 8 -26 4 -8 -4 -9 -3 -5 4 8 14 9
14 30 6z m423 -9 c0 -11 -4 -12 -14 -4 -7 6 -13 13 -13 15 0 2 6 4 13 4 8 0
14 -7 14 -15z m513 2 c1 4 10 -10 20 -31 23 -46 12 -61 -29 -40 -14 8 -32 14
-40 14 -9 0 -7 5 6 18 10 9 13 13 6 8 -14 -9 -17 2 -7 28 5 12 10 13 25 5 10
-5 19 -6 19 -2z m-1500 -7 c0 -5 -10 -10 -22 -10 -19 0 -20 2 -8 10 19 13 30
13 30 0z m257 4 c-3 -3 -12 -4 -19 -1 -8 3 -5 6 6 6 11 1 17 -2 13 -5z m67 -6
c-6 -10 -4 -10 7 -2 15 12 48 15 47 5 -2 -19 4 -24 12 -11 9 13 12 13 24 -3 9
-12 16 -14 21 -7 3 5 12 7 18 3 6 -4 22 -8 36 -9 28 -3 46 -25 28 -36 -6 -4
-8 -10 -4 -15 12 -11 25 16 20 38 -6 23 15 26 23 4 6 -14 8 -13 19 1 11 16 41
11 31 -5 -3 -4 13 -8 34 -9 21 -2 42 3 46 9 4 7 3 9 -2 6 -6 -3 -16 -2 -23 2
-9 6 -4 9 13 9 14 0 26 -6 26 -13 0 -10 9 -11 37 -4 26 5 40 4 45 -4 8 -12 12
3 9 28 -1 6 7 0 18 -12 l19 -22 15 30 c10 22 17 27 23 18 4 -7 3 -14 -4 -17
-7 -2 -10 -8 -7 -12 3 -5 12 -7 19 -4 8 3 17 0 21 -6 6 -9 9 -9 15 1 7 10 11
10 24 0 9 -8 16 -21 17 -30 0 -10 2 -11 6 -3 6 15 33 16 33 1 0 -6 14 -1 31
11 16 12 32 20 35 18 7 -8 -7 -39 -15 -34 -4 3 -12 -4 -19 -15 -7 -11 -8 -19
-2 -19 5 0 10 5 10 10 0 6 13 10 29 10 20 0 30 -6 34 -20 3 -11 2 -18 -3 -15
-4 3 -11 -2 -14 -11 -3 -8 -10 -13 -15 -10 -5 4 -11 0 -14 -6 -3 -10 -7 -10
-19 0 -13 11 -16 10 -14 -5 0 -11 -6 -18 -16 -18 -9 0 -20 -4 -24 -8 -11 -11
-36 -8 -29 3 4 6 -6 10 -24 10 -16 0 -33 -5 -37 -11 -4 -7 -10 -7 -16 -1 -12
12 -1 35 13 27 5 -4 9 -1 9 4 0 6 12 11 28 12 l27 0 -25 10 c-17 7 -26 7 -28
0 -2 -6 -10 -11 -18 -11 -8 0 -18 -8 -21 -17 -4 -10 -11 -21 -16 -24 -5 -4 -7
-17 -4 -30 l4 -24 8 22 c8 24 40 27 54 4 6 -9 10 -6 14 9 3 12 10 19 16 16 12
-8 11 -56 -1 -56 -4 0 -8 -10 -8 -23 0 -13 -5 -28 -10 -33 -7 -7 -6 -11 5 -11
8 0 15 8 15 18 0 13 5 16 17 12 12 -5 14 -3 8 7 -5 8 -4 11 3 7 12 -8 4 -47
-9 -47 -5 0 -9 -5 -9 -12 0 -6 7 -4 18 5 10 10 21 17 25 17 7 0 57 -49 57 -56
0 -6 20 -31 43 -52 19 -18 23 -42 7 -42 -6 0 -22 12 -35 26 -27 29 -34 21 -10
-10 19 -25 19 -46 0 -46 -8 0 -15 5 -15 10 0 10 -36 50 -45 50 -3 0 -5 -6 -5
-14 0 -7 -15 -16 -32 -20 -20 -4 -28 -10 -21 -14 6 -4 13 -14 15 -22 4 -20 22
-39 31 -33 15 9 28 -8 17 -22 -9 -11 -17 -11 -36 -3 -29 13 -40 6 -26 -18 5
-10 12 -12 16 -6 9 15 86 -7 86 -25 0 -10 -7 -14 -20 -10 -11 3 -20 1 -20 -4
0 -8 14 -13 32 -10 4 0 16 -11 27 -26 12 -14 21 -22 21 -18 0 4 6 2 14 -5 13
-10 13 -8 3 13 -6 14 -17 23 -23 20 -6 -2 -14 3 -17 12 -8 19 3 75 14 75 15 0
22 -22 9 -30 -8 -5 -9 -10 -1 -14 6 -4 13 5 17 21 4 15 12 34 17 41 8 11 5 18
-12 31 l-23 17 26 17 c31 21 36 21 36 2 0 -19 28 -8 32 12 3 14 5 13 18 -2 8
-11 10 -16 4 -12 -7 4 -17 1 -22 -6 -12 -14 -5 -57 9 -57 5 0 9 -7 9 -15 0
-22 -23 -18 -38 5 -7 12 -18 18 -24 14 -7 -5 -5 -11 6 -20 10 -7 15 -17 12
-22 -3 -6 2 -8 14 -5 15 4 20 0 20 -13 0 -17 1 -17 13 0 12 16 14 16 26 2 11
-13 11 -17 -2 -22 -9 -3 -13 -13 -10 -25 4 -12 0 -19 -10 -19 -8 0 -17 10 -20
21 -4 15 -11 20 -23 15 -9 -3 -23 -1 -30 5 -15 12 -17 6 -8 -28 6 -23 26 -33
21 -11 -1 6 6 14 16 16 20 4 24 -23 5 -32 -7 -3 -3 -3 8 -1 15 4 26 -2 39 -21
20 -30 9 -44 -31 -39 -13 1 -24 -2 -24 -8 0 -5 14 -7 34 -4 41 7 81 -16 56
-32 -24 -16 -6 -22 29 -10 37 13 54 3 28 -16 -10 -7 -14 -15 -10 -18 11 -7 40
-3 49 6 4 4 11 7 16 7 4 0 -1 -9 -12 -20 -12 -12 -18 -26 -14 -31 4 -7 -2 -7
-16 1 -20 11 -21 10 -15 -9 4 -12 2 -21 -4 -21 -6 0 -11 -4 -11 -10 0 -5 6
-10 14 -10 20 0 27 -13 15 -30 -8 -13 -10 -13 -19 0 -6 10 -10 11 -10 3 0 -25
2 -28 16 -25 8 2 14 -5 14 -14 0 -12 -7 -15 -29 -12 -17 2 -28 1 -25 -4 3 -4
14 -8 25 -8 11 0 19 -7 19 -16 0 -12 -6 -15 -21 -11 -15 4 -18 2 -10 -7 14
-16 4 -26 -26 -26 -26 0 -30 15 -7 28 14 8 14 10 -1 26 -9 9 -14 23 -11 31 4
12 0 14 -19 9 -15 -4 -25 -2 -25 5 0 6 -4 11 -10 11 -5 0 -7 -7 -4 -15 4 -8
12 -15 20 -15 17 0 19 -16 3 -26 -6 -3 -20 3 -32 14 -20 21 -20 22 -2 42 10
11 24 19 31 16 16 -6 25 17 13 35 -12 19 -11 51 2 47 5 -2 20 -19 32 -38 12
-19 16 -31 10 -27 -6 4 -14 3 -17 -2 -7 -10 19 -23 28 -14 12 12 6 30 -19 59
-14 16 -23 36 -20 45 3 8 -5 24 -18 36 -21 18 -27 19 -50 7 -17 -9 -28 -10
-32 -4 -4 6 -10 8 -15 5 -4 -3 -15 7 -25 21 -11 17 -22 23 -33 19 -9 -3 -13
-3 -9 1 4 4 -5 15 -21 24 -20 13 -30 15 -41 6 -12 -9 -13 -7 -9 12 6 23 -6 31
-16 10 -3 -7 -3 -1 0 15 5 23 3 27 -15 27 -13 0 -21 6 -21 16 0 10 6 14 15 11
8 -4 17 -2 20 4 4 5 10 7 15 4 5 -3 11 -1 15 4 3 6 -6 8 -21 5 -17 -3 -30 1
-38 12 -8 10 -21 14 -37 11 -22 -4 -22 -4 4 -6 36 -1 31 -25 -6 -28 -31 -2
-36 22 -14 57 10 17 9 22 -2 29 -15 10 -6 32 12 30 7 -1 20 -1 30 0 15 1 16 3
5 15 -7 8 -14 10 -16 5 -2 -5 -13 -9 -24 -9 -12 0 -18 3 -15 7 4 3 -1 12 -11
19 -16 12 -16 13 1 19 9 4 17 13 17 21 0 17 12 18 28 2 9 -9 12 -9 12 3 0 16
-23 21 -50 12 -8 -3 -45 -7 -81 -9 -64 -3 -67 -2 -73 21 -4 14 -13 25 -21 25
-18 0 -19 14 -5 41 7 13 7 19 0 19 -5 0 -10 -7 -10 -15 0 -9 -9 -15 -22 -15
-21 -1 -21 -2 -5 -11 10 -6 14 -15 10 -22 -4 -7 -8 -19 -8 -27 0 -8 -5 -14
-12 -13 -6 1 -14 -4 -17 -13 -4 -12 -2 -12 14 -4 10 6 25 9 32 8 6 -2 12 5 13
14 0 33 20 23 22 -10 1 -25 -3 -33 -15 -31 -34 3 -40 -1 -35 -22 5 -19 3 -21
-25 -15 -18 4 -33 3 -37 -3 -9 -15 -38 -14 -32 2 2 6 12 11 21 11 24 -2 19 23
-6 30 l-23 6 25 20 c14 11 18 19 10 18 -8 -2 -15 4 -15 12 0 8 7 14 15 13 10
-2 16 6 16 22 2 26 2 26 -16 5 -9 -11 -22 -20 -29 -20 -15 0 -14 27 2 33 7 4
3 8 -10 12 -27 9 -30 32 -5 37 14 3 13 6 -7 17 -13 7 -20 8 -17 2 4 -6 -1 -25
-10 -43 -9 -18 -11 -28 -4 -21 7 6 18 9 26 6 16 -6 7 -33 -11 -33 -7 0 -15 -7
-19 -15 -3 -8 -1 -15 4 -15 6 0 10 5 10 10 0 15 30 12 31 -2 0 -7 1 -32 3 -56
2 -42 -6 -62 -19 -43 -3 6 -12 8 -20 4 -10 -3 -15 1 -15 13 0 14 -3 15 -12 6
-7 -7 -16 -12 -20 -12 -13 0 -9 20 8 38 15 15 18 14 30 -3 12 -16 14 -16 14
-3 0 9 -10 20 -22 24 -21 6 -47 31 -48 45 0 4 9 9 21 12 12 3 18 10 15 16 -4
6 -13 8 -21 5 -18 -7 -30 -44 -18 -53 5 -3 12 -14 16 -24 5 -14 3 -17 -11 -13
-9 3 -29 8 -44 12 -29 6 -38 30 -14 36 12 3 12 5 0 16 -12 11 -14 10 -14 -3 0
-8 -7 -15 -16 -15 -12 0 -15 6 -11 21 7 28 -9 11 -17 -18 -6 -18 -4 -20 14
-16 17 5 20 1 18 -23 -1 -16 -6 -35 -11 -42 -7 -9 -6 -11 6 -7 8 4 17 15 20
26 5 19 27 27 27 10 0 -5 9 -7 20 -4 14 4 20 0 20 -12 0 -10 -6 -15 -17 -13
-10 2 -26 -5 -36 -15 -15 -15 -16 -21 -6 -33 6 -8 17 -14 23 -13 7 0 6 2 -1 6
-14 5 -18 33 -5 33 4 0 17 3 30 6 16 5 22 2 22 -9 0 -8 9 -17 20 -20 20 -5 37
-33 27 -43 -8 -8 -67 25 -67 38 0 6 -2 9 -5 6 -11 -10 7 -37 28 -44 43 -13 75
-54 42 -54 -8 0 -15 -4 -15 -10 0 -14 -27 -12 -33 3 -4 9 -8 9 -15 -2 -6 -8
-15 -10 -22 -6 -10 6 -8 11 6 22 18 13 18 14 -1 12 -39 -4 -55 1 -55 17 0 12
6 15 25 10 14 -4 25 -2 25 4 0 5 -9 10 -21 10 -28 0 -51 24 -42 46 4 12 3 15
-5 10 -7 -4 -12 -14 -12 -22 0 -8 -6 -14 -14 -14 -13 0 -26 19 -32 48 -4 23
-14 27 -14 6 0 -14 -2 -16 -9 -5 -12 18 -2 51 15 51 8 0 14 -5 14 -11 0 -5 5
-7 10 -4 6 3 10 1 10 -4 0 -16 17 -13 23 3 3 8 -1 13 -11 12 -9 0 -18 9 -22
24 -5 20 -12 25 -35 25 -21 0 -32 6 -36 20 -3 11 -11 19 -18 17 -7 -1 -28 2
-47 7 -29 8 -34 7 -35 -7 0 -14 -2 -13 -9 3 -5 11 -9 14 -9 8 -1 -7 -7 -13
-15 -13 -8 0 -16 6 -19 13 -3 8 -10 6 -22 -8 -9 -11 -14 -15 -11 -9 10 19 -20
23 -50 8 -25 -13 -30 -13 -40 0 -15 22 -24 20 -24 -5 0 -12 -5 -19 -12 -16 -7
2 -24 -4 -37 -14 -30 -24 -43 -24 -61 1 -10 14 -16 16 -22 7 -10 -16 -10 -30
0 -23 4 2 9 -5 9 -16 2 -21 2 -21 -14 1 -8 12 -21 20 -28 17 -8 -3 -12 4 -11
20 1 21 3 22 12 9 10 -14 12 -14 18 0 7 18 37 20 56 3 7 -7 3 0 -9 17 -23 30
-13 48 14 25 12 -10 15 -9 15 4 0 23 15 20 34 -6 9 -13 14 -17 11 -10 -4 7 3
16 17 22 22 9 21 9 -7 7 -27 -2 -29 1 -32 33 -2 33 -2 34 10 12 16 -27 27 -19
27 20 0 22 5 28 23 29 17 1 18 2 4 6 -21 5 -18 40 2 35 9 -2 11 3 7 13 -3 10
-2 14 5 10 6 -4 16 1 24 11 11 16 14 17 18 4 13 -38 17 -42 13 -14 -7 42 4 50
27 22 18 -22 18 -22 8 -1 -16 31 -15 32 29 39 22 4 40 11 40 16 0 6 7 8 15 4
8 -3 15 -1 15 4 0 6 14 10 30 10 20 0 30 -5 30 -15 0 -8 4 -15 10 -15 5 0 7 7
4 15 -4 9 0 15 10 15 9 0 16 4 16 9 0 17 59 9 63 -8 3 -11 5 -9 6 6 1 18 9 27
29 32 2 1 0 -5 -4 -11z m1060 -3 c-4 -8 -11 -15 -16 -15 -6 0 -5 6 2 15 7 8
14 15 16 15 2 0 1 -7 -2 -15z m189 -6 c6 -23 1 -28 -23 -22 -11 3 -17 10 -14
15 4 6 1 14 -6 18 -7 5 -3 8 13 8 16 0 27 -7 30 -19z m-258 -7 c-3 -3 -11 0
-18 7 -9 10 -8 11 6 5 10 -3 15 -9 12 -12z m125 13 c0 -2 -10 -10 -22 -16 -21
-11 -22 -11 -9 4 13 16 31 23 31 12z m-700 -15 c0 -5 -5 -10 -11 -10 -5 0 -7
5 -4 10 3 6 8 10 11 10 2 0 4 -4 4 -10z m360 -5 c-10 -12 -16 -13 -26 -4 -18
15 -18 14 12 17 23 2 25 0 14 -13z m-1256 -4 c3 -5 -1 -11 -9 -14 -9 -4 -12
-1 -8 9 6 16 10 17 17 5z m1336 -1 c0 -5 -2 -10 -4 -10 -3 0 -8 5 -11 10 -3 6
-1 10 4 10 6 0 11 -4 11 -10z m140 -15 c0 -8 -2 -15 -4 -15 -2 0 -6 7 -10 15
-3 8 -1 15 4 15 6 0 10 -7 10 -15z m50 11 c0 -2 -8 -10 -17 -17 -16 -13 -17
-12 -4 4 13 16 21 21 21 13z m55 -26 c-3 -5 -12 -10 -18 -10 -7 0 -6 4 3 10
19 12 23 12 15 0z m-1605 -10 c0 -5 -2 -10 -4 -10 -3 0 -8 5 -11 10 -3 6 -1
10 4 10 6 0 11 -4 11 -10z m1568 -15 c2 -10 0 -15 -6 -11 -6 3 -18 -1 -26 -10
-9 -8 -16 -11 -16 -6 0 5 7 15 15 22 8 7 12 17 8 22 -3 6 0 9 8 6 8 -3 16 -13
17 -23z m-220 -5 c-7 -11 -21 -23 -30 -26 -18 -5 -22 -54 -5 -54 4 0 4 -7 -1
-17 -5 -9 -23 -17 -40 -17 -16 -1 -28 3 -25 7 3 5 16 7 28 5 21 -4 22 -2 18
32 -3 21 -1 40 5 44 6 4 8 14 5 22 -5 13 -1 15 15 9 13 -4 22 -2 22 4 0 6 5
11 10 11 6 0 5 -8 -2 -20z m152 0 c0 -5 -9 -19 -19 -29 -19 -19 -20 -19 -18
-1 1 10 5 16 9 14 4 -3 8 2 8 10 0 9 5 16 10 16 6 0 10 -4 10 -10z m101 -10
c-11 -6 -10 -9 5 -13 16 -4 16 -5 -3 -6 -13 0 -23 3 -23 7 0 12 23 33 29 26 3
-3 -1 -9 -8 -14z m179 10 c0 -5 -5 -10 -11 -10 -5 0 -7 5 -4 10 3 6 8 10 11
10 2 0 4 -4 4 -10z m32 -11 c-14 -5 -20 -14 -16 -24 3 -8 4 -15 1 -15 -3 0 -7
7 -11 15 -6 18 21 48 37 38 6 -4 2 -9 -11 -14z m-1782 -12 c0 -5 7 -7 15 -3 8
3 15 1 15 -4 0 -6 -4 -10 -10 -10 -5 0 -7 -8 -4 -17 5 -16 4 -16 -8 -3 -7 8
-21 23 -31 32 -16 16 -16 17 3 15 11 -1 20 -5 20 -10z m1715 3 c3 -5 1 -10 -4
-10 -6 0 -11 5 -11 10 0 6 2 10 4 10 3 0 8 -4 11 -10z m-1860 -40 c3 -5 2 -10
-4 -10 -5 0 -13 5 -16 10 -3 6 -2 10 4 10 5 0 13 -4 16 -10z m1395 0 c0 -5 -4
-10 -10 -10 -5 0 -10 5 -10 10 0 6 5 10 10 10 6 0 10 -4 10 -10z m243 3 c-7
-2 -19 -2 -25 0 -7 3 -2 5 12 5 14 0 19 -2 13 -5z m58 -36 c-10 -9 -11 -8 -5
6 3 10 9 15 12 12 3 -3 0 -11 -7 -18z m-1671 -2 c5 3 12 0 15 -6 5 -7 1 -10
-10 -7 -10 1 -20 9 -21 16 -1 7 0 8 3 2 2 -5 9 -8 13 -5z m1265 -5 c3 -5 -1
-10 -10 -10 -9 0 -13 5 -10 10 3 6 8 10 10 10 2 0 7 -4 10 -10z m547 -12 c-7
-7 -12 -8 -12 -2 0 6 3 14 7 17 3 4 9 5 12 2 2 -3 -1 -11 -7 -17z m-154 -21
c-15 -31 -15 -31 -14 1 1 19 5 28 13 25 10 -4 10 -10 1 -26z m101 7 c6 4 11 2
11 -3 0 -6 -9 -11 -20 -11 -12 0 -20 7 -20 18 0 13 2 14 9 3 5 -7 14 -10 20
-7z m-1765 -8 c-5 -13 -34 -31 -34 -21 0 5 30 35 35 35 3 0 2 -6 -1 -14z m30
-12 c3 -8 2 -12 -4 -9 -6 3 -10 10 -10 16 0 14 7 11 14 -7z m1406 1 c0 -8 -4
-15 -10 -15 -5 0 -7 7 -4 15 4 8 8 15 10 15 2 0 4 -7 4 -15z m196 -5 c0 -20
-7 -25 -19 -13 -4 3 -2 12 4 20 15 17 15 17 15 -7z m64 10 c0 -5 -5 -10 -11
-10 -5 0 -7 5 -4 10 3 6 8 10 11 10 2 0 4 -4 4 -10z m-235 -10 c3 -5 1 -10 -4
-10 -6 0 -11 5 -11 10 0 6 2 10 4 10 3 0 8 -4 11 -10z m259 -6 c3 -8 2 -12 -4
-9 -6 3 -10 10 -10 16 0 14 7 11 14 -7z m156 -4 c0 -5 -4 -10 -10 -10 -5 0
-10 5 -10 10 0 6 5 10 10 10 6 0 10 -4 10 -10z m-510 -4 c0 -2 -8 -10 -17 -17
-16 -13 -17 -12 -4 4 13 16 21 21 21 13z m37 -12 c-3 -3 -12 -4 -19 -1 -8 3
-5 6 6 6 11 1 17 -2 13 -5z m73 2 c0 -3 -4 -8 -10 -11 -5 -3 -10 -1 -10 4 0 6
5 11 10 11 6 0 10 -2 10 -4z m275 -6 c3 -5 1 -10 -4 -10 -6 0 -11 5 -11 10 0
6 2 10 4 10 3 0 8 -4 11 -10z m-365 -38 c0 -15 -2 -15 -10 -2 -13 20 -13 33 0
25 6 -3 10 -14 10 -23z m157 -14 c-3 -7 -5 -2 -5 12 0 14 2 19 5 13 2 -7 2
-19 0 -25z m-107 18 c0 -3 -4 -8 -10 -11 -5 -3 -10 -1 -10 4 0 6 5 11 10 11 6
0 10 -2 10 -4z m150 0 c0 -3 -4 -8 -10 -11 -5 -3 -10 -1 -10 4 0 6 5 11 10 11
6 0 10 -2 10 -4z m160 -11 c0 -8 -2 -15 -4 -15 -2 0 -6 7 -10 15 -3 8 -1 15 4
15 6 0 10 -7 10 -15z m-283 -45 c0 -22 -5 -40 -10 -40 -5 0 -7 11 -5 25 3 13
1 26 -4 27 -5 2 -6 11 -3 21 11 28 23 10 22 -33z m190 34 c-3 -3 -12 -4 -19
-1 -8 3 -5 6 6 6 11 1 17 -2 13 -5z m-7 -24 c0 -5 -2 -10 -4 -10 -3 0 -8 5
-11 10 -3 6 -1 10 4 10 6 0 11 -4 11 -10z m-1460 -14 c0 -3 -4 -8 -10 -11 -5
-3 -10 -1 -10 4 0 6 5 11 10 11 6 0 10 -2 10 -4z m1620 0 c0 -2 -8 -10 -17
-17 -16 -13 -17 -12 -4 4 13 16 21 21 21 13z m-1260 -21 c0 -8 -7 -15 -15 -15
-8 0 -15 7 -15 15 0 8 7 15 15 15 8 0 15 -7 15 -15z m894 -10 c19 -28 20 -35
6 -35 -5 0 -16 14 -25 30 -19 36 -4 40 19 5z m406 15 c0 -5 -5 -10 -11 -10 -5
0 -7 5 -4 10 3 6 8 10 11 10 2 0 4 -4 4 -10z m40 -10 c8 -5 11 -10 5 -10 -5 0
-17 5 -25 10 -8 5 -10 10 -5 10 6 0 17 -5 25 -10z m-1850 -4 c0 -11 -19 -15
-25 -6 -3 5 1 10 9 10 9 0 16 -2 16 -4z m1560 -10 c0 -2 -9 -6 -20 -9 -11 -3
-20 -1 -20 4 0 5 9 9 20 9 11 0 20 -2 20 -4z m-1579 -19 c13 -10 14 -14 3 -25
-8 -7 -15 -8 -19 -2 -4 6 -11 8 -16 5 -5 -4 -9 -1 -9 4 0 6 6 11 13 11 8 0 7
4 -3 10 -13 9 -13 10 0 10 8 -1 22 -6 31 -13z m59 -7 c-8 -5 -17 -7 -19 -4 -3
3 1 9 9 14 8 5 17 7 19 4 3 -3 -1 -9 -9 -14z m79 -1 c-14 -8 -29 -3 -29 11 0
4 9 6 21 3 15 -4 17 -8 8 -14z m933 -11 c-15 -15 -26 -4 -18 18 5 13 9 15 18
6 9 -9 9 -15 0 -24z m-92 7 c0 -8 -7 -15 -15 -15 -8 0 -15 7 -15 15 0 8 7 15
15 15 8 0 15 -7 15 -15z m54 6 c3 -4 -3 -16 -13 -25 -22 -20 -40 -4 -21 19 14
17 26 19 34 6z m671 -11 c16 -17 16 -20 3 -15 -9 4 -19 13 -22 21 -7 19 -2 18
19 -6z m-136 7 c-2 -1 -15 -11 -29 -22 l-25 -20 19 23 c11 12 24 22 29 22 6 0
8 -1 6 -3z m-596 -33 c21 -8 23 -34 2 -34 -8 0 -15 7 -15 15 0 11 -5 12 -26 5
-33 -13 -34 -13 -34 4 0 15 27 27 45 20 6 -2 18 -7 28 -10z m305 -4 c3 -9 -2
-11 -16 -8 -12 4 -23 0 -26 -7 -3 -10 2 -12 19 -9 13 2 27 0 30 -6 3 -5 20
-10 36 -10 38 0 34 -22 -4 -27 -17 -2 -27 1 -27 9 0 7 -11 14 -25 14 -50 3
-76 49 -32 57 30 6 40 3 45 -13z m-198 0 c18 -11 25 -83 7 -77 -7 2 -12 13
-12 24 0 12 -3 24 -6 28 -4 3 -6 0 -5 -7 0 -7 -3 -14 -9 -16 -5 -1 -11 8 -11
20 -3 38 8 46 36 28z m-1120 -4 c0 -3 -4 -8 -10 -11 -5 -3 -10 -1 -10 4 0 6 5
11 10 11 6 0 10 -2 10 -4z m174 -4 c3 -5 -1 -9 -9 -9 -8 0 -12 4 -9 9 3 4 7 8
9 8 2 0 6 -4 9 -8z m896 -7 c0 -8 -7 -15 -15 -15 -16 0 -20 12 -8 23 11 12 23
8 23 -8z m543 -16 c-7 -27 -23 -24 -23 6 0 17 4 23 14 19 8 -3 12 -13 9 -25z
m-668 2 c7 -12 -12 -24 -25 -16 -11 7 -4 25 10 25 5 0 11 -4 15 -9z m49 0 c9
-14 -4 -41 -20 -41 -15 0 -17 10 -8 34 7 18 20 21 28 7z m912 -13 c4 -7 3 -8
-4 -4 -19 12 -14 -25 6 -41 11 -10 12 -13 3 -11 -21 6 -35 33 -28 52 8 19 13
20 23 4z m-1866 -2 c0 -3 -4 -8 -10 -11 -5 -3 -10 -1 -10 4 0 6 5 11 10 11 6
0 10 -2 10 -4z m1515 -6 c3 -5 2 -10 -4 -10 -5 0 -13 5 -16 10 -3 6 -2 10 4
10 5 0 13 -4 16 -10z m180 -8 c-3 -3 -11 0 -18 7 -9 10 -8 11 6 5 10 -3 15 -9
12 -12z m-1105 -7 c0 -8 -7 -15 -15 -15 -8 0 -15 7 -15 15 0 8 7 15 15 15 8 0
15 -7 15 -15z m400 1 c0 -8 -4 -17 -9 -21 -12 -7 -24 12 -16 25 9 15 25 12 25
-4z m45 1 c13 -10 15 -16 6 -21 -17 -11 -41 0 -41 19 0 19 11 19 35 2z m-536
-12 c9 -9 -54 -5 -69 5 -10 7 -3 8 24 5 22 -3 42 -8 45 -10z m783 -17 c-15
-15 -26 -4 -18 18 5 13 9 15 18 6 9 -9 9 -15 0 -24z m418 7 c11 -13 10 -14 -5
-8 -15 5 -17 3 -11 -13 5 -14 4 -16 -4 -8 -6 6 -8 18 -4 27 8 21 8 21 24 2z
m-610 -21 c0 -16 -16 -19 -25 -4 -8 13 4 32 16 25 5 -4 9 -13 9 -21z m-779 -7
c-10 -9 -11 -8 -5 6 3 10 9 15 12 12 3 -3 0 -11 -7 -18z m546 1 c-3 -8 -6 -5
-6 6 -1 11 2 17 5 13 3 -3 4 -12 1 -19z m-741 -11 c4 -4 -4 -6 -19 -5 -14 1
-24 5 -21 9 5 9 31 6 40 -4z m154 -8 c0 7 5 9 10 6 6 -3 10 -26 10 -51 0 -41
3 -46 32 -58 l31 -13 -29 -14 c-24 -12 -29 -21 -32 -57 -3 -43 -12 -52 -31
-29 -6 8 -7 17 -1 23 14 14 -12 59 -38 62 -27 4 -30 22 -3 22 40 0 59 70 28
109 -11 14 -10 14 6 2 12 -9 17 -10 17 -2z m495 -9 c3 -6 -1 -13 -10 -16 -19
-8 -30 0 -20 15 8 14 22 14 30 1z m-325 -10 c0 -5 -5 -10 -11 -10 -5 0 -7 5
-4 10 3 6 8 10 11 10 2 0 4 -4 4 -10z m135 -39 c-3 -6 -11 -11 -16 -11 -5 0
-4 6 3 14 14 16 24 13 13 -3z m925 5 c0 -7 -8 -16 -19 -19 -14 -3 -17 0 -14
14 6 22 33 26 33 5z m-823 -12 c-3 -3 -12 -4 -19 -1 -8 3 -5 6 6 6 11 1 17 -2
13 -5z m-567 -8 c0 -3 -4 -8 -10 -11 -5 -3 -10 -1 -10 4 0 6 5 11 10 11 6 0
10 -2 10 -4z m807 -12 c-3 -3 -12 -4 -19 -1 -8 3 -5 6 6 6 11 1 17 -2 13 -5z
m593 -9 c0 -8 -7 -15 -15 -15 -8 0 -15 7 -15 15 0 8 7 15 15 15 8 0 15 -7 15
-15z m268 -23 c2 -7 -3 -12 -12 -12 -9 0 -16 7 -16 16 0 17 22 14 28 -4z
m-1731 -12 c-1 -12 -5 -16 -10 -11 -5 5 -6 14 -3 20 11 16 15 13 13 -9z m763
-2 c0 -6 -6 -5 -15 2 -8 7 -15 14 -15 16 0 2 7 1 15 -2 8 -4 15 -11 15 -16z
m720 -3 c0 -8 -7 -15 -15 -15 -8 0 -15 7 -15 15 0 8 7 15 15 15 8 0 15 -7 15
-15z m-460 -15 c0 -5 -5 -10 -11 -10 -5 0 -7 5 -4 10 3 6 8 10 11 10 2 0 4 -4
4 -10z m678 -8 c2 -7 -3 -12 -12 -12 -9 0 -16 7 -16 16 0 17 22 14 28 -4z
m-1757 -15 c-10 -9 -11 -8 -5 6 3 10 9 15 12 12 3 -3 0 -11 -7 -18z m569 19
c0 -2 -7 -7 -16 -10 -8 -3 -12 -2 -9 4 6 10 25 14 25 6z m-530 -16 c0 -5 -2
-10 -4 -10 -3 0 -8 5 -11 10 -3 6 -1 10 4 10 6 0 11 -4 11 -10z m52 -25 c3
-13 1 -22 -3 -19 -9 5 -13 44 -5 44 2 0 6 -11 8 -25z m1768 10 c0 -8 -4 -15
-9 -15 -13 0 -22 16 -14 24 11 11 23 6 23 -9z m-1869 -12 c13 -16 12 -17 -3
-4 -10 7 -18 15 -18 17 0 8 8 3 21 -13z m564 7 c3 -5 1 -10 -4 -10 -6 0 -11 5
-11 10 0 6 2 10 4 10 3 0 8 -4 11 -10z m900 -6 c9 -9 14 -19 11 -21 -10 -11
-56 8 -56 22 0 20 25 19 45 -1z m-285 -3 c0 -18 -18 -21 -30 -6 -10 13 -9 15
9 15 11 0 21 -4 21 -9z m728 -9 c2 -7 -3 -12 -12 -12 -9 0 -16 7 -16 16 0 17
22 14 28 -4z m-693 -1 c7 -12 -12 -24 -25 -16 -11 7 -4 25 10 25 5 0 11 -4 15
-9z m615 -16 c0 -8 6 -12 14 -9 16 6 31 -12 16 -21 -5 -3 -21 2 -35 11 -25 16
-25 16 -25 -10 0 -16 -5 -26 -15 -26 -8 0 -15 7 -15 15 0 8 4 15 10 15 5 0 6
7 3 17 -4 10 -2 14 5 9 6 -3 13 -2 17 4 9 15 25 12 25 -5z m-570 -20 c0 -8 -7
-15 -15 -15 -8 0 -15 7 -15 15 0 8 7 15 15 15 8 0 15 -7 15 -15z m494 -1 c3
-8 2 -12 -4 -9 -6 3 -10 10 -10 16 0 14 7 11 14 -7z m-140 -29 c-4 -8 -1 -15
6 -15 7 0 10 -8 7 -20 -3 -11 2 -27 10 -35 11 -12 12 -19 4 -29 -8 -10 -9 -16
-1 -21 5 -3 10 -1 10 4 0 6 8 20 17 30 14 17 19 18 36 6 24 -16 57 -65 57 -82
0 -7 -6 -13 -14 -13 -8 0 -13 -7 -12 -16 0 -9 -5 -19 -11 -21 -8 -3 -13 5 -14
19 -1 15 -3 17 -6 6 -2 -9 -11 -19 -19 -22 -8 -3 -13 -2 -11 2 3 4 1 16 -4 27
-6 17 -8 17 -8 3 -1 -19 -31 -26 -31 -7 0 5 -4 8 -9 4 -5 -3 -12 -1 -16 4 -3
6 -12 8 -20 4 -19 -7 -19 -4 1 65 13 45 14 59 4 76 -10 16 -9 22 6 33 23 17
25 16 18 -2z m280 0 c-4 -8 -11 -15 -16 -15 -6 0 -5 6 2 15 7 8 14 15 16 15 2
0 1 -7 -2 -15z m-64 -10 c0 -9 -9 -15 -21 -15 -18 0 -19 2 -9 15 7 8 16 15 21
15 5 0 9 -7 9 -15z m-1825 -4 c3 -5 1 -12 -5 -16 -5 -3 -10 1 -10 9 0 18 6 21
15 7z m211 -13 c4 -7 4 -10 -1 -6 -4 4 -15 2 -24 -5 -14 -11 -14 -10 -2 6 16
20 18 21 27 5z m-239 -20 c-3 -8 -6 -5 -6 6 -1 11 2 17 5 13 3 -3 4 -12 1 -19z
m83 16 c0 -8 -19 -13 -24 -6 -3 5 1 9 9 9 8 0 15 -2 15 -3z m1375 -4 c3 -5 1
-10 -4 -10 -6 0 -11 5 -11 10 0 6 2 10 4 10 3 0 8 -4 11 -10z m345 -5 c0 -8 7
-15 15 -15 8 0 15 -7 15 -15 0 -8 -7 -15 -15 -15 -8 0 -15 7 -15 15 0 8 -7 15
-15 15 -8 0 -15 7 -15 15 0 8 7 15 15 15 8 0 15 -7 15 -15z m-115 -4 c7 -12
-12 -24 -25 -16 -11 7 -4 25 10 25 5 0 11 -4 15 -9z m-511 -16 c4 -10 -1 -15
-14 -15 -20 0 -26 11 -13 23 10 11 20 8 27 -8z m-1090 -7 c-3 -4 -12 -8 -20
-8 -8 0 -13 4 -10 8 3 5 12 9 20 9 8 0 13 -4 10 -9z m162 3 c-4 -5 -2 -11 4
-13 5 -1 -2 -8 -15 -15 -14 -6 -23 -7 -20 -3 3 5 2 10 -2 13 -5 2 -3 2 4 1 6
-2 14 4 17 12 3 8 8 14 11 14 4 0 4 -4 1 -9z m704 0 c0 -19 -20 -22 -36 -7
-14 15 -13 16 10 16 14 0 26 -4 26 -9z m-933 -53 c-7 -18 -19 -33 -27 -36 -13
-3 -13 -2 -1 6 8 6 10 15 6 22 -5 9 -4 11 3 6 11 -6 17 13 13 37 -1 5 3 6 9 2
6 -4 5 -17 -3 -37z m848 33 c7 -12 -12 -24 -25 -16 -11 7 -4 25 10 25 5 0 11
-4 15 -9z m1045 -6 c0 -8 -7 -15 -15 -15 -16 0 -20 12 -8 23 11 12 23 8 23 -8z
m-892 -6 c-2 -6 -8 -10 -13 -10 -5 0 -11 4 -13 10 -2 6 4 11 13 11 9 0 15 -5
13 -11z m-78 -20 c0 -5 -7 -9 -15 -9 -15 0 -20 12 -9 23 8 8 24 -1 24 -14z
m-895 2 c-3 -5 -1 -12 5 -16 5 -3 10 -11 10 -16 0 -6 -7 -3 -16 5 -13 14 -12
36 2 36 3 0 3 -4 -1 -9z m153 -16 c1 -17 -3 -25 -14 -25 -8 0 -13 3 -11 8 2 4
7 15 10 25 9 23 12 21 15 -8z m1262 -36 c0 -14 -36 2 -48 22 -21 33 -2 44 24
14 13 -16 24 -31 24 -36z m-470 36 c0 -8 -7 -15 -15 -15 -8 0 -15 7 -15 15 0
8 7 15 15 15 8 0 15 -7 15 -15z m98 -3 c2 -7 -3 -12 -12 -12 -9 0 -16 7 -16
16 0 17 22 14 28 -4z m158 -5 c2 -14 -1 -15 -17 -6 -11 5 -17 15 -13 20 9 14
27 6 30 -14z m261 -11 c-10 -8 -15 -20 -11 -30 4 -11 1 -16 -10 -16 -9 0 -16
6 -16 14 0 8 -2 20 -5 28 -6 16 36 38 50 25 6 -5 4 -13 -8 -21z m433 20 c0 -7
-9 -16 -20 -19 -17 -4 -18 -2 -9 14 11 22 29 25 29 5z m-62 -28 c-3 -7 -11
-13 -18 -13 -7 0 -15 6 -17 13 -3 7 4 12 17 12 13 0 20 -5 18 -12z m-828 -19
c0 -5 -7 -9 -16 -9 -9 0 -12 -5 -8 -12 4 -7 3 -8 -4 -4 -9 5 -9 13 -2 27 11
19 30 18 30 -2z m373 7 c23 -17 22 -32 -3 -39 -11 -3 -20 -12 -20 -21 0 -17
-9 -20 -34 -10 -19 7 -21 37 -4 64 15 23 35 25 61 6z m-1296 -11 c0 -8 -4 -12
-9 -9 -5 3 -6 10 -3 15 9 13 12 11 12 -6z m45 -7 c-7 -7 -12 -8 -12 -2 0 14
12 26 19 19 2 -3 -1 -11 -7 -17z m38 12 c0 -5 -5 -10 -11 -10 -5 0 -7 5 -4 10
3 6 8 10 11 10 2 0 4 -4 4 -10z m922 -5 c0 -5 -5 -11 -11 -13 -6 -2 -11 4 -11
13 0 9 5 15 11 13 6 -2 11 -8 11 -13z m73 -15 c-5 -8 -11 -8 -17 -2 -6 6 -7
16 -3 22 5 8 11 8 17 2 6 -6 7 -16 3 -22z m709 8 c-8 -29 -10 -31 -23 -23 -17
10 -13 25 7 25 14 0 15 2 2 10 -13 8 -12 10 3 10 14 0 17 -5 11 -22z m-1617
-8 c1 -11 -2 -20 -8 -20 -10 0 -12 23 -2 33 9 9 9 10 10 -13z m290 14 c-3 -3
-12 -4 -19 -1 -8 3 -5 6 6 6 11 1 17 -2 13 -5z m711 -19 c10 -22 9 -23 -9 -17
-11 5 -20 11 -20 15 1 4 1 12 1 17 0 19 17 10 28 -15z m-1244 -17 c6 -5 2 -8
-11 -8 -17 0 -20 4 -15 22 4 16 7 18 10 8 3 -8 10 -18 16 -22z m1046 6 c0 -21
-27 -17 -33 5 -3 14 0 17 14 14 11 -3 19 -12 19 -19z m705 6 c-20 -22 -49 -27
-42 -7 2 6 11 12 20 12 8 0 19 4 23 8 17 16 16 6 -1 -13z m-1675 -17 c0 -16
12 -17 29 0 10 10 11 9 6 -4 -4 -10 -19 -19 -35 -21 -16 -2 -27 -1 -24 4 3 4
1 8 -4 8 -5 0 -9 6 -9 13 0 7 9 13 19 13 10 0 18 -6 18 -13z m1110 -3 c-6 -11
-15 -18 -21 -15 -15 10 -11 23 9 28 9 3 18 5 20 6 1 0 -2 -8 -8 -19z m-520 6
c0 -11 -19 -15 -25 -6 -3 5 1 10 9 10 9 0 16 -2 16 -4z m300 -8 c0 -7 -11 -18
-23 -24 -22 -10 -23 -9 -13 13 12 24 36 32 36 11z m161 -3 c-1 -15 -24 -12
-29 3 -3 9 2 13 12 10 10 -1 17 -7 17 -13z m259 -6 c0 -14 -17 -10 -23 5 -4
10 -1 13 9 9 7 -3 14 -9 14 -14z m408 3 c2 -7 -3 -12 -12 -12 -9 0 -16 7 -16
16 0 17 22 14 28 -4z m-1288 4 c0 -3 -4 -8 -10 -11 -5 -3 -10 -1 -10 4 0 6 5
11 10 11 6 0 10 -2 10 -4z m730 -12 c0 -17 -22 -14 -28 4 -2 7 3 12 12 12 9 0
16 -7 16 -16z m304 -3 c-5 -3 -9 -12 -9 -20 0 -8 -6 -16 -12 -18 -16 -6 -17
29 -1 45 6 6 15 9 21 5 5 -3 5 -8 1 -12z m301 -19 c-22 -5 -27 1 -19 23 7 17
8 17 21 -1 12 -17 12 -19 -2 -22z m-1845 24 c0 -3 -4 -8 -10 -11 -5 -3 -10 -1
-10 4 0 6 5 11 10 11 6 0 10 -2 10 -4z m1095 -14 c0 -18 -20 -15 -23 4 -3 10
1 15 10 12 7 -3 13 -10 13 -16z m-1135 -2 c0 -5 -5 -10 -11 -10 -5 0 -7 5 -4
10 3 6 8 10 11 10 2 0 4 -4 4 -10z m290 -16 c0 -8 -4 -13 -9 -9 -5 3 -12 -3
-14 -12 -3 -10 -4 -4 -2 12 2 17 4 31 4 33 3 10 21 -12 21 -24z m1038 13 c8
-10 6 -13 -9 -14 -10 -1 -19 5 -19 13 0 17 14 18 28 1z m132 -2 c0 -8 -7 -15
-15 -15 -8 0 -15 7 -15 15 0 8 7 15 15 15 8 0 15 -7 15 -15z m278 -3 c2 -7 -3
-12 -12 -12 -9 0 -16 7 -16 16 0 17 22 14 28 -4z m-1651 -19 c3 9 8 17 13 17
13 0 -4 -43 -18 -48 -13 -4 -33 38 -24 52 3 5 10 -1 15 -15 8 -20 11 -21 14
-6z m983 2 c0 -8 -7 -15 -15 -15 -8 0 -15 7 -15 15 0 8 7 15 15 15 8 0 15 -7
15 -15z m130 -1 c0 -9 -5 -14 -12 -12 -18 6 -21 28 -4 28 9 0 16 -7 16 -16z
m70 6 c0 -5 9 -10 20 -10 11 0 20 -7 20 -15 0 -8 -9 -15 -20 -15 -11 0 -20 5
-20 10 0 6 -7 10 -15 10 -8 0 -15 7 -15 15 0 8 7 15 15 15 8 0 15 -4 15 -10z
m270 -26 c0 -14 -4 -23 -9 -20 -5 3 -7 16 -3 28 4 16 2 19 -8 13 -9 -5 -11 -4
-6 4 11 17 26 3 26 -25z m297 0 c-12 -12 -37 5 -30 21 5 15 7 15 21 1 9 -9 13
-18 9 -22z m-1665 1 c-2 -15 -10 -21 -25 -19 -12 1 -25 3 -29 3 -5 1 -8 5 -8
10 0 4 12 6 27 3 20 -4 25 -2 21 10 -4 8 -1 15 6 15 8 0 11 -9 8 -22z m993 15
c11 -17 -5 -32 -21 -19 -12 10 -13 6 -8 -19 3 -16 1 -32 -4 -36 -7 -4 -9 2 -7
16 3 12 -1 26 -8 30 -9 6 -7 12 7 23 23 18 33 19 41 5z m-445 -10 c0 -5 -2
-10 -4 -10 -3 0 -8 5 -11 10 -3 6 -1 10 4 10 6 0 11 -4 11 -10z m760 -5 c0
-14 45 -40 63 -37 14 4 7 -19 -9 -25 -22 -8 -65 13 -58 30 3 8 -2 17 -10 20
-20 8 -21 27 -1 27 8 0 15 -7 15 -15z m410 6 c0 -14 -18 -23 -30 -16 -6 4 -8
11 -5 16 8 12 35 12 35 0z m-175 -22 c0 -8 -10 -14 -22 -15 -18 -1 -20 1 -10
17 13 21 32 20 32 -2z m-610 -19 c-5 -8 -11 -8 -17 -2 -6 6 -7 16 -3 22 5 8
11 8 17 2 6 -6 7 -16 3 -22z m110 0 c-5 -8 -11 -8 -17 -2 -6 6 -7 16 -3 22 5
8 11 8 17 2 6 -6 7 -16 3 -22z m-1210 11 c3 -5 1 -12 -5 -16 -5 -3 -10 1 -10
9 0 18 6 21 15 7z m1345 -12 c0 -5 -7 -9 -15 -9 -15 0 -20 12 -9 23 8 8 24 -1
24 -14z m235 1 c0 -7 -6 -15 -12 -17 -8 -3 -13 4 -13 17 0 13 5 20 13 18 6 -3
12 -11 12 -18z m308 -18 c3 -15 0 -33 -5 -40 -8 -9 -8 -16 0 -24 16 -16 15
-28 -3 -28 -8 0 -15 7 -15 15 0 8 -4 15 -10 15 -5 0 -11 8 -11 18 -1 16 -2 16
-6 0 -5 -22 -33 -24 -33 -3 0 8 7 15 16 15 9 0 12 5 8 13 -6 10 -4 10 7 0 30
-29 50 0 21 29 -18 18 -15 27 7 21 11 -3 21 -17 24 -31z m-713 24 c0 -2 3 -12
7 -22 4 -11 3 -15 -4 -11 -7 4 -17 -6 -25 -23 -9 -22 -19 -29 -34 -27 -23 3
-54 29 -54 46 0 17 27 13 34 -4 3 -8 12 -15 21 -15 8 0 15 7 15 15 0 8 4 15
10 15 5 0 7 7 4 15 -4 9 0 15 10 15 9 0 16 -2 16 -4z m114 -7 c-2 -4 3 -10 12
-13 13 -5 14 -9 5 -20 -9 -10 -8 -15 3 -19 9 -4 18 -2 21 3 10 16 25 12 25 -6
0 -29 30 5 31 35 1 17 3 20 6 8 2 -9 9 -15 14 -12 5 4 9 1 9 -4 0 -6 -4 -11
-10 -11 -5 0 -6 -8 -3 -17 5 -12 2 -15 -10 -10 -9 3 -19 2 -22 -3 -3 -5 -12
-7 -20 -4 -7 3 -23 1 -34 -6 -14 -7 -21 -7 -21 0 0 5 -6 10 -14 10 -8 0 -17 7
-20 16 -9 23 -8 24 12 18 12 -4 10 0 -6 13 -13 10 -20 22 -16 25 8 9 44 6 38
-3z m536 -3 c0 -8 -7 -16 -15 -20 -10 -4 -15 1 -15 14 0 11 7 20 15 20 8 0 15
-6 15 -14z m-1685 -6 c3 -5 1 -10 -4 -10 -6 0 -11 5 -11 10 0 6 2 10 4 10 3 0
8 -4 11 -10z m65 6 c0 -7 -40 -14 -44 -7 -3 4 6 8 20 9 13 1 24 0 24 -2z m266
-5 c-3 -5 4 -11 15 -14 12 -3 18 -10 14 -16 -10 -17 11 -13 25 4 18 21 33 14
37 -18 5 -34 -24 -38 -30 -4 -3 19 -5 18 -12 -10 -6 -25 -10 -29 -19 -20 -20
22 -46 74 -39 81 9 9 15 7 9 -3z m164 -42 l0 -20 -22 20 c-11 11 -25 18 -30
15 -4 -3 -8 -1 -8 5 0 14 23 19 43 9 9 -5 17 -18 17 -29z m45 1 c4 -20 11 -27
21 -23 11 4 15 0 12 -13 -2 -11 2 -18 10 -16 7 1 24 3 37 4 23 2 30 10 26 31
-1 4 4 17 9 28 14 25 32 15 24 -15 -4 -16 1 -25 20 -35 13 -8 27 -22 29 -32 3
-11 13 -19 23 -19 16 0 16 1 1 18 -15 16 -15 18 3 19 24 2 31 -18 14 -41 -12
-18 -14 -17 -40 3 -15 11 -34 21 -43 21 -11 -1 -10 -4 7 -13 12 -7 20 -16 16
-20 -3 -3 -12 -1 -20 6 -33 30 -44 37 -55 37 -6 0 -9 -6 -6 -14 5 -11 0 -13
-21 -7 -15 5 -33 6 -39 4 -7 -3 -13 2 -13 11 0 9 -11 23 -24 31 -30 20 -42 75
-15 68 10 -3 21 -18 24 -33z m303 25 c8 -3 12 -12 9 -20 -4 -9 -1 -12 9 -8 15
6 17 -10 5 -41 -7 -19 -8 -19 -14 3 -5 19 -9 21 -26 12 -13 -7 -28 -8 -45 -1
-20 7 -25 15 -23 38 2 25 5 28 37 25 19 -1 41 -5 48 -8z m242 0 c0 -8 -7 -15
-15 -15 -16 0 -20 12 -8 23 11 12 23 8 23 -8z m-510 -11 c0 -9 -5 -14 -12 -12
-18 6 -21 28 -4 28 9 0 16 -7 16 -16z m70 6 c0 -6 -10 -22 -23 -36 -21 -23
-23 -23 -24 -4 -1 11 2 20 8 20 5 0 9 7 9 15 0 8 7 15 15 15 8 0 15 -5 15 -10z
m80 -5 c0 -8 5 -15 10 -15 6 0 10 -7 10 -15 0 -21 -26 -19 -34 3 -3 9 -9 23
-12 30 -3 7 1 12 10 12 9 0 16 -7 16 -15z m173 -4 c-2 -6 1 -11 6 -11 19 0 18
-27 -1 -39 -13 -8 -18 -8 -13 -1 4 6 0 21 -9 34 -15 24 -11 40 8 32 6 -2 10
-9 9 -15z m670 11 c7 -9 -29 -53 -36 -45 -4 3 -3 11 1 17 4 6 7 14 8 19 3 15
4 17 13 17 6 0 12 -3 14 -8z m-163 -18 c0 -11 -59 -29 -67 -21 -2 3 -1 10 2
18 6 17 65 19 65 3z m35 -24 c-5 -8 -11 -8 -17 -2 -6 6 -7 16 -3 22 5 8 11 8
17 2 6 -6 7 -16 3 -22z m-975 5 c0 -8 -7 -15 -15 -15 -8 0 -15 7 -15 15 0 8 7
15 15 15 8 0 15 -7 15 -15z m643 -5 c3 -11 1 -17 -4 -14 -5 3 -27 6 -49 6 -27
0 -40 5 -40 14 0 10 13 14 44 14 35 0 45 -4 49 -20z m675 8 c-6 -18 -28 -21
-28 -4 0 9 7 16 16 16 9 0 14 -5 12 -12z m-150 -41 c3 -12 -4 -15 -29 -12 -36
5 -43 10 -36 22 10 15 62 7 65 -10z m-1164 7 c9 -3 16 -13 16 -21 0 -11 -5
-13 -17 -8 -10 4 -26 7 -35 7 -10 0 -18 3 -18 8 0 5 -8 11 -17 13 -10 3 -1 5
19 6 20 0 43 -2 52 -5z m76 -19 c0 -7 -7 -16 -16 -19 -29 -11 -37 -6 -21 12
10 10 14 22 10 26 -4 4 0 4 10 0 9 -3 17 -12 17 -19z m427 -5 c-2 -11 -6 -22
-9 -25 -9 -9 -21 33 -13 45 10 16 25 1 22 -20z m110 8 c-3 -8 -6 -5 -6 6 -1
11 2 17 5 13 3 -3 4 -12 1 -19z m593 7 c0 -8 -4 -15 -10 -15 -5 0 -10 7 -10
15 0 8 5 15 10 15 6 0 10 -7 10 -15z m44 0 c4 -10 -1 -15 -14 -15 -11 0 -20 7
-20 15 0 8 6 15 14 15 8 0 16 -7 20 -15z m-784 -5 c0 -5 -4 -10 -10 -10 -5 0
-10 5 -10 10 0 6 5 10 10 10 6 0 10 -4 10 -10z m833 -24 c4 -9 -3 -16 -17 -18
-19 -4 -22 -1 -18 14 5 21 28 24 35 4z m-65 -16 c7 -12 8 -20 2 -20 -5 0 -10
5 -10 10 0 6 -5 9 -11 8 -6 -2 -14 3 -16 10 -8 20 21 14 35 -8z m-788 -10 c0
-10 -9 -24 -20 -30 -17 -9 -19 -8 -13 7 6 16 24 42 31 43 1 0 2 -9 2 -20z
m871 -10 c6 0 7 -5 4 -10 -4 -6 -1 -17 5 -25 9 -11 9 -15 1 -15 -6 0 -11 5
-11 10 0 6 -6 9 -12 8 -7 -2 -13 4 -13 12 0 8 -4 19 -10 23 -6 5 -2 6 8 3 10
-3 23 -6 28 -6z m-688 -35 c1 -5 -8 -11 -20 -13 -15 -2 -23 2 -23 11 0 16 39
18 43 2z"/>
<path d="M1812 1749 c-8 -12 -9 -18 -2 -14 6 4 19 1 28 -7 15 -11 15 -11 6 2
-6 8 -13 21 -15 28 -3 8 -9 5 -17 -9z"/>
<path d="M1171 1709 c-7 -12 -7 -19 -1 -19 5 0 10 5 10 11 0 6 9 9 20 6 11 -3
20 -2 20 3 0 17 -37 17 -49 -1z"/>
<path d="M640 1711 c0 -6 4 -13 10 -16 6 -3 7 1 4 9 -7 18 -14 21 -14 7z"/>
<path d="M687 1713 c-4 -3 1 -11 10 -18 16 -12 10 -40 -7 -30 -5 3 -12 1 -15
-5 -4 -6 -1 -9 6 -8 8 2 14 -11 16 -37 4 -49 10 -66 21 -63 5 2 19 -8 31 -22
13 -14 20 -19 16 -12 -9 17 34 75 51 68 11 -4 12 -1 6 12 -5 9 -7 23 -5 30 3
6 0 12 -6 12 -11 0 -15 -13 -12 -37 1 -7 -6 -13 -15 -13 -10 0 -14 5 -11 14 4
10 1 13 -9 9 -17 -6 -18 -15 -2 -31 17 -17 -3 -34 -23 -19 -17 13 -41 94 -30
101 3 2 18 2 33 -1 19 -4 25 -9 21 -21 -4 -10 -2 -13 5 -8 19 12 14 26 -15 38
-16 7 -35 20 -44 30 -9 10 -19 15 -22 11z"/>
<path d="M1016 1707 c-11 -8 -16 -21 -13 -33 4 -17 5 -16 6 4 1 12 7 22 16 22
8 0 15 5 15 10 0 13 -3 13 -24 -3z"/>
<path d="M1082 1711 c-6 -4 -1 -11 14 -18 27 -12 31 -8 11 12 -8 7 -19 10 -25
6z"/>
<path d="M570 1700 c19 -13 30 -13 30 0 0 6 -10 10 -22 10 -19 0 -20 -2 -8
-10z"/>
<path d="M890 1700 c-9 -6 -10 -10 -3 -10 6 0 15 5 18 10 8 12 4 12 -15 0z"/>
<path d="M930 1692 c0 -5 14 -7 30 -4 17 2 30 6 30 8 0 2 -13 4 -30 4 -16 0
-30 -4 -30 -8z"/>
<path d="M1235 1690 c3 -5 10 -10 16 -10 5 0 9 5 9 10 0 6 -7 10 -16 10 -8 0
-12 -4 -9 -10z"/>
<path d="M400 1680 c0 -5 5 -10 10 -10 6 0 10 5 10 10 0 6 -4 10 -10 10 -5 0
-10 -4 -10 -10z"/>
<path d="M538 1680 c12 -5 22 -15 22 -21 0 -7 3 -9 6 -6 10 10 -16 37 -35 36
-11 0 -9 -3 7 -9z"/>
<path d="M810 1682 c0 -5 7 -16 16 -23 14 -12 16 -11 13 5 -4 20 -29 35 -29
18z"/>
<path d="M1065 1680 c-3 -5 -3 -21 1 -35 8 -33 -13 -33 -26 0 -5 14 -12 25
-15 25 -2 0 0 -12 6 -27 9 -23 7 -30 -13 -44 -12 -10 -26 -15 -30 -13 -4 3 -8
-2 -8 -10 0 -9 -4 -16 -8 -16 -20 0 -20 15 2 44 23 30 25 56 5 56 -6 0 -7 -4
-4 -10 3 -5 2 -17 -3 -27 -9 -15 -11 -14 -20 4 -6 11 -8 23 -5 27 3 3 1 6 -6
6 -9 0 -11 -8 -8 -21 3 -12 0 -22 -9 -26 -8 -3 -14 -11 -14 -18 0 -7 -12 -12
-26 -12 -20 0 -25 4 -21 17 2 10 1 23 -3 30 -5 7 -9 2 -12 -14 -3 -15 -1 -29
3 -32 17 -10 9 -26 -11 -21 -29 7 -25 2 16 -24 38 -23 53 -17 54 24 0 9 4 17
9 17 5 0 11 10 15 22 4 18 8 20 17 11 9 -9 9 -15 0 -27 -10 -11 -9 -19 1 -35
7 -12 16 -21 21 -21 4 0 6 4 3 9 -3 5 1 15 10 22 13 10 17 10 25 -2 7 -11 9
-9 9 9 0 12 6 22 14 22 8 0 16 6 19 13 3 9 7 9 19 0 12 -11 14 -8 10 18 -3 17
0 34 6 38 6 4 5 10 -4 18 -7 8 -15 9 -19 3z m-165 -125 c0 -8 -7 -15 -15 -15
-8 0 -15 7 -15 15 0 8 7 15 15 15 8 0 15 -7 15 -15z"/>
<path d="M445 1657 c1 -12 7 -23 15 -25 8 -3 10 0 5 8 -4 7 -2 16 5 20 8 5 6
9 -7 12 -15 4 -19 0 -18 -15z"/>
<path d="M613 1673 c9 -2 17 -11 17 -20 0 -10 -6 -13 -16 -9 -8 3 -12 2 -9 -4
3 -6 15 -10 26 -10 25 0 35 -25 19 -45 -10 -12 -9 -15 4 -15 22 0 22 56 0 64
-9 4 -13 13 -10 24 5 14 0 18 -22 19 -15 0 -19 -1 -9 -4z"/>
<path d="M885 1660 c-11 -5 -14 -9 -6 -9 9 -1 11 -9 8 -23 -6 -22 -6 -22 8 -4
13 17 21 48 13 45 -2 0 -12 -4 -23 -9z"/>
<path d="M520 1646 c0 -9 5 -16 10 -16 6 0 10 4 10 9 0 6 -4 13 -10 16 -5 3
-10 -1 -10 -9z"/>
<path d="M1292 1641 c-11 -7 -11 -9 2 -14 10 -4 16 -1 16 8 0 17 -1 17 -18 6z"/>
<path d="M1140 1630 c0 -5 7 -7 15 -4 8 4 15 8 15 10 0 2 -7 4 -15 4 -8 0 -15
-4 -15 -10z"/>
<path d="M574 1621 c5 -8 0 -14 -13 -18 -16 -4 -20 -11 -16 -24 7 -22 -14 -26
-33 -7 -9 9 -12 9 -12 0 0 -6 11 -14 25 -18 14 -3 25 -12 25 -20 0 -8 6 -11
15 -8 9 4 15 0 15 -10 0 -9 -8 -16 -17 -16 -12 0 -18 -8 -19 -25 -2 -24 5 -29
33 -26 6 1 14 -3 18 -9 3 -5 13 -10 21 -10 8 0 12 5 9 10 -4 6 -10 8 -15 5 -5
-3 -13 2 -18 11 -5 9 -13 15 -18 14 -5 -1 -10 4 -13 11 -2 8 5 10 25 6 16 -3
23 -4 17 -1 -16 7 -17 64 -1 64 6 0 8 3 5 6 -4 4 -13 1 -21 -5 -8 -7 -19 -10
-25 -7 -10 7 -3 46 9 46 13 0 20 29 8 36 -7 5 -8 3 -4 -5z"/>
<path d="M310 1610 c-8 -5 -12 -12 -9 -15 4 -3 12 1 19 10 14 17 11 19 -10 5z"/>
<path d="M445 1590 c3 -5 3 -15 -1 -22 -5 -8 -11 -5 -20 7 -8 10 -17 15 -21
11 -5 -4 1 -14 11 -22 14 -10 23 -11 33 -3 16 14 17 39 2 39 -5 0 -7 -4 -4
-10z"/>
<path d="M600 1583 c-13 -15 -12 -16 4 -10 10 4 20 7 22 7 2 0 4 5 4 10 0 15
-13 12 -30 -7z"/>
<path d="M1050 1576 c0 -2 7 -9 15 -16 13 -11 14 -10 9 4 -5 14 -24 23 -24 12z"/>
<path d="M315 1560 c-3 -5 -1 -10 4 -10 6 0 11 5 11 10 0 6 -2 10 -4 10 -3 0
-8 -4 -11 -10z"/>
<path d="M628 1555 c-3 -4 -2 -20 4 -37 8 -24 8 -32 -3 -39 -11 -7 -10 -9 4
-9 18 0 20 13 8 63 -3 16 -9 26 -13 22z"/>
<path d="M671 1544 c0 -11 3 -14 6 -6 3 7 2 16 -1 19 -3 4 -6 -2 -5 -13z"/>
<path d="M1103 1545 c0 -8 6 -15 14 -15 7 0 13 7 13 15 0 8 -6 15 -13 15 -8 0
-14 -7 -14 -15z"/>
<path d="M365 1539 c-4 -6 -5 -12 -2 -15 2 -3 7 2 10 11 7 17 1 20 -8 4z"/>
<path d="M395 1530 c3 -5 8 -10 11 -10 2 0 4 5 4 10 0 6 -5 10 -11 10 -5 0 -7
-4 -4 -10z"/>
<path d="M487 1520 c6 -23 33 -49 33 -31 0 6 -4 11 -10 11 -5 0 -10 9 -10 20
0 11 -4 20 -9 20 -5 0 -7 -9 -4 -20z"/>
<path d="M790 1530 c0 -5 5 -10 11 -10 5 0 7 5 4 10 -3 6 -8 10 -11 10 -2 0
-4 -4 -4 -10z"/>
<path d="M1030 1525 c-7 -9 -19 -14 -27 -11 -7 3 -13 1 -13 -4 0 -6 9 -10 20
-10 11 0 20 -7 20 -15 0 -8 -4 -15 -9 -15 -15 0 -7 -33 14 -54 22 -23 51 -28
66 -10 7 8 6 15 -2 20 -7 4 -15 2 -17 -4 -5 -16 -27 -15 -42 3 -15 18 -4 55
18 55 16 1 16 2 0 14 -28 20 -23 39 8 32 17 -5 23 -3 19 4 -9 15 -41 12 -55
-5z"/>
<path d="M1155 1530 c6 -9 -41 -35 -57 -32 -4 1 -5 -5 -2 -13 5 -11 11 -12 24
-5 10 6 24 10 30 10 13 0 8 -48 -6 -58 -5 -4 -10 -15 -12 -24 -2 -13 2 -16 13
-12 9 4 14 13 11 21 -4 10 -1 11 14 3 10 -5 26 -7 34 -4 9 3 16 1 16 -5 0 -6
11 -11 25 -11 20 0 25 5 24 23 -1 17 -2 18 -6 4 -3 -10 -12 -17 -21 -15 -10 2
-15 7 -14 12 6 14 -22 26 -30 13 -5 -9 -10 -9 -19 0 -15 15 -3 34 18 26 11 -4
14 -2 11 8 -3 8 -13 14 -24 14 -15 0 -18 6 -16 28 1 15 -2 27 -8 27 -6 0 -8
-5 -5 -10z"/>
<path d="M711 1523 c0 -7 -9 -13 -18 -14 -14 0 -13 -2 4 -9 13 -5 20 -16 19
-27 -2 -10 -1 -12 1 -5 3 6 11 12 19 12 8 0 14 5 14 10 0 6 -6 10 -14 10 -8 0
-17 8 -19 18 -3 9 -5 11 -6 5z"/>
<path d="M912 1501 c-9 -13 -13 -14 -20 -2 -12 17 -23 -1 -12 -19 7 -12 12
-11 30 5 21 19 22 19 35 2 14 -20 26 -11 16 13 -8 20 -35 21 -49 1z"/>
<path d="M1200 1509 c0 -5 5 -7 10 -4 6 3 10 8 10 11 0 2 -4 4 -10 4 -5 0 -10
-5 -10 -11z"/>
<path d="M440 1500 c0 -14 15 -19 29 -11 9 6 7 10 -8 14 -12 3 -21 1 -21 -3z"/>
<path d="M276 1491 c-3 -5 1 -14 9 -21 12 -10 15 -10 15 3 0 19 -16 31 -24 18z"/>
<path d="M400 1490 c-9 -6 -10 -10 -3 -10 6 0 15 5 18 10 8 12 4 12 -15 0z"/>
<path d="M1097 1449 c7 -7 15 -10 18 -7 3 3 -2 9 -12 12 -14 6 -15 5 -6 -5z"/>
<path d="M1295 1436 c-7 -8 -6 -16 5 -26 17 -16 60 -22 60 -8 0 4 -11 8 -24 8
-16 0 -26 6 -28 19 -2 14 -6 16 -13 7z"/>
<path d="M1280 1379 c0 -6 -9 -9 -20 -6 -11 3 -20 1 -20 -4 0 -4 9 -13 20 -19
16 -9 20 -8 20 5 0 9 4 14 8 11 5 -3 9 1 9 9 0 8 -4 15 -9 15 -4 0 -8 -5 -8
-11z"/>
<path d="M1240 1270 c0 -5 5 -10 11 -10 5 0 7 5 4 10 -3 6 -8 10 -11 10 -2 0
-4 -4 -4 -10z"/>
<path d="M1300 1132 c0 -13 39 -32 45 -22 3 5 -3 14 -14 19 -23 13 -31 14 -31
3z"/>
<path d="M1370 1095 c0 -13 44 -43 57 -38 9 4 9 8 0 18 -7 7 -16 11 -20 8 -4
-3 -14 1 -22 7 -8 7 -15 9 -15 5z"/>
<path d="M1450 1080 c0 -6 7 -10 15 -10 8 0 15 2 15 4 0 2 -7 6 -15 10 -8 3
-15 1 -15 -4z"/>
<path d="M1435 1030 c-3 -6 1 -7 9 -4 18 7 21 14 7 14 -6 0 -13 -4 -16 -10z"/>
<path d="M1567 963 c-4 -3 -7 -11 -7 -17 0 -6 5 -5 12 2 6 6 9 14 7 17 -3 3
-9 2 -12 -2z"/>
<path d="M1655 800 c-3 -5 -1 -10 4 -10 6 0 11 5 11 10 0 6 -2 10 -4 10 -3 0
-8 -4 -11 -10z"/>
<path d="M1726 784 c-5 -14 -4 -15 9 -4 12 10 16 9 21 -3 3 -9 3 -21 -1 -26
-3 -6 0 -9 7 -6 14 6 20 45 7 45 -4 0 -14 3 -22 6 -8 3 -17 -2 -21 -12z"/>
<path d="M1654 758 c-4 -7 -4 -10 1 -6 4 4 14 3 22 -4 7 -6 16 -8 19 -5 3 3
-3 10 -15 16 -15 8 -22 8 -27 -1z"/>
<path d="M1483 1967 c2 -6 13 -17 25 -25 20 -13 22 -13 16 2 -3 9 -10 16 -16
16 -5 0 -7 4 -4 8 3 5 -2 9 -10 9 -8 0 -13 -5 -11 -10z"/>
<path d="M1936 1881 c-4 -7 -5 -15 -2 -18 9 -9 19 4 14 18 -4 11 -6 11 -12 0z"/>
<path d="M1965 1730 c-8 -13 5 -13 25 0 13 8 13 10 -2 10 -9 0 -20 -4 -23 -10z"/>
<path d="M196 504 c-4 -9 -5 -17 -4 -18 2 -1 13 -6 24 -13 21 -11 22 -10 15
14 -8 32 -26 40 -35 17z"/>
<path d="M92 490 c0 -14 2 -19 5 -12 2 6 2 18 0 25 -3 6 -5 1 -5 -13z"/>
<path d="M130 466 c0 -9 30 -14 35 -6 4 6 -3 10 -14 10 -12 0 -21 -2 -21 -4z"/>
<path d="M184 451 c0 -12 7 -19 17 -18 10 1 14 7 11 19 -6 24 -28 23 -28 -1z"/>
<path d="M37 449 c7 -7 15 -10 18 -7 3 3 -2 9 -12 12 -14 6 -15 5 -6 -5z"/>
<path d="M101 444 c0 -11 3 -14 6 -6 3 7 2 16 -1 19 -3 4 -6 -2 -5 -13z"/>
<path d="M249 449 c-11 -7 -9 -9 8 -9 24 0 75 -48 67 -62 -3 -4 -1 -8 5 -8 5
0 9 9 8 19 0 11 -5 17 -9 15 -5 -3 -11 1 -14 10 -9 24 -49 46 -65 35z"/>
<path d="M7 439 c7 -7 15 -10 18 -7 3 3 -2 9 -12 12 -14 6 -15 5 -6 -5z"/>
<path d="M132 425 c-27 -15 -21 -20 31 -30 42 -8 50 -25 11 -25 -14 0 -23 -4
-19 -10 11 -18 45 -11 54 12 8 21 8 21 16 -8 5 -16 9 -33 10 -39 1 -12 15 -18
16 -7 1 4 -7 26 -17 50 -12 29 -20 39 -26 30 -6 -10 -8 -10 -8 0 0 6 -11 12
-25 12 -14 0 -25 5 -25 11 0 5 5 7 10 4 6 -3 10 -1 10 4 0 14 -8 13 -38 -4z"/>
<path d="M365 420 c10 -11 20 -18 23 -16 5 6 -23 36 -34 36 -4 0 1 -9 11 -20z"/>
<path d="M400 436 c0 -2 7 -7 16 -10 8 -3 12 -2 9 4 -6 10 -25 14 -25 6z"/>
<path d="M230 423 c0 -4 5 -15 10 -23 8 -13 10 -13 10 2 0 9 -4 20 -10 23 -5
3 -10 3 -10 -2z"/>
<path d="M461 417 c4 -34 -2 -42 -17 -22 l-16 20 3 -20 c2 -11 0 -26 -5 -33
-7 -11 -4 -12 11 -3 15 7 23 7 32 -2 10 -9 11 -8 5 6 -3 10 -3 17 2 16 19 -3
34 1 34 10 0 5 -10 7 -22 4 -22 -4 -22 -4 -5 10 17 14 16 15 -3 20 -12 3 -20
1 -19 -6z"/>
<path d="M1214 401 c-10 -17 -21 -28 -25 -25 -4 2 -10 0 -14 -6 -3 -5 1 -10 9
-10 9 0 16 -8 17 -17 0 -15 2 -15 8 2 5 11 6 26 4 33 -3 6 -1 12 5 12 5 0 12
9 15 20 7 28 1 25 -19 -9z"/>
<path d="M510 416 c0 -2 7 -6 15 -10 8 -3 15 -1 15 4 0 6 -7 10 -15 10 -8 0
-15 -2 -15 -4z"/>
<path d="M716 391 c-4 -7 -5 -15 -2 -18 9 -9 19 4 14 18 -4 11 -6 11 -12 0z"/>
<path d="M123 375 c0 -8 4 -12 9 -9 5 3 6 10 3 15 -9 13 -12 11 -12 -6z"/>
<path d="M280 380 c0 -5 -8 -10 -17 -10 -14 -1 -12 -4 7 -15 30 -17 40 -18 40
-5 0 6 -7 10 -15 10 -9 0 -12 6 -9 15 4 8 3 15 0 15 -3 0 -6 -4 -6 -10z"/>
<path d="M571 376 c-7 -8 -8 -17 -3 -20 6 -3 12 3 15 14 6 24 4 25 -12 6z"/>
<path d="M1557 357 c-3 -8 1 -14 8 -14 7 0 11 6 8 14 -3 7 -6 13 -8 13 -2 0
-5 -6 -8 -13z"/>
<path d="M205 350 c-3 -5 -1 -10 4 -10 6 0 11 5 11 10 0 6 -2 10 -4 10 -3 0
-8 -4 -11 -10z"/>
<path d="M1759 351 c-1 -3 -3 -22 -5 -41 -3 -25 -1 -31 6 -20 8 12 13 13 29 3
25 -15 34 -4 16 20 -9 12 -14 14 -17 6 -2 -7 -10 -9 -16 -5 -21 13 -13 25 21
28 l32 3 -32 6 c-18 3 -34 3 -34 0z"/>
<path d="M440 335 c0 -8 4 -15 10 -15 5 0 7 7 4 15 -4 8 -8 15 -10 15 -2 0 -4
-7 -4 -15z"/>
<path d="M890 335 c0 -8 2 -15 4 -15 2 0 6 7 10 15 3 8 1 15 -4 15 -6 0 -10
-7 -10 -15z"/>
<path d="M1387 344 c-4 -4 -7 -14 -7 -23 0 -11 3 -12 11 -4 6 6 10 16 7 23 -2
6 -7 8 -11 4z"/>
<path d="M1498 332 c-7 -9 -9 -14 -4 -10 4 4 19 3 32 -2 29 -11 30 -9 5 12
-18 16 -21 16 -33 0z"/>
<path d="M395 330 c-3 -5 -1 -10 4 -10 6 0 11 5 11 10 0 6 -2 10 -4 10 -3 0
-8 -4 -11 -10z"/>
<path d="M770 330 c0 -5 -9 -10 -20 -10 -11 0 -20 -4 -20 -9 0 -4 11 -6 25 -3
14 2 25 11 25 18 0 8 -2 14 -5 14 -3 0 -5 -4 -5 -10z"/>
<path d="M795 330 c-3 -5 -1 -10 4 -10 6 0 11 5 11 10 0 6 -2 10 -4 10 -3 0
-8 -4 -11 -10z"/>
<path d="M1695 330 c3 -5 12 -10 20 -10 7 0 16 -6 18 -12 4 -8 6 -7 6 3 1 9
-6 20 -15 23 -23 9 -36 7 -29 -4z"/>
<path d="M1009 309 c5 -15 7 -30 4 -33 -4 -3 -1 -6 5 -6 17 0 15 22 -3 46 -14
18 -15 17 -6 -7z"/>
<path d="M1125 310 c20 -22 35 -26 35 -10 0 6 -6 9 -12 8 -7 -2 -12 3 -10 10
1 6 -5 12 -15 12 -14 0 -14 -2 2 -20z"/>
<path d="M1150 326 c0 -2 9 -6 20 -9 11 -3 20 -1 20 4 0 5 -9 9 -20 9 -11 0
-20 -2 -20 -4z"/>
<path d="M57 309 c7 -7 15 -10 18 -7 3 3 -2 9 -12 12 -14 6 -15 5 -6 -5z"/>
<path d="M550 316 c0 -9 40 -13 46 -5 3 5 -6 9 -20 9 -14 0 -26 -2 -26 -4z"/>
<path d="M653 304 c0 -9 6 -10 17 -4 10 5 21 6 25 2 5 -4 5 -2 1 5 -8 15 -43
13 -43 -3z"/>
<path d="M960 300 c0 -11 2 -20 4 -20 2 0 6 9 9 20 3 11 1 20 -4 20 -5 0 -9
-9 -9 -20z"/>
<path d="M782 290 c-10 -17 -10 -20 3 -20 8 0 15 9 15 20 0 11 -1 20 -3 20 -1
0 -8 -9 -15 -20z"/>
<path d="M1090 300 c-9 -6 -10 -10 -3 -10 6 0 15 5 18 10 8 12 4 12 -15 0z"/>
<path d="M1246 302 c-3 -5 1 -9 9 -9 8 0 15 4 15 9 0 4 -4 8 -9 8 -6 0 -12 -4
-15 -8z"/>
<path d="M1571 294 c0 -11 3 -14 6 -6 3 7 2 16 -1 19 -3 4 -6 -2 -5 -13z"/>
<path d="M1660 303 c0 -7 8 -17 18 -22 14 -9 14 -10 2 -11 -9 0 -22 6 -30 13
-7 6 -3 -2 11 -19 l24 -31 11 26 c9 21 8 27 -5 30 -9 2 -19 8 -23 15 -6 8 -8
8 -8 -1z"/>
<path d="M1058 283 c6 -2 9 -10 6 -15 -4 -7 -2 -8 5 -4 13 9 5 26 -12 25 -9 0
-8 -2 1 -6z"/>
<path d="M1162 281 c-7 -4 -25 -7 -40 -5 -18 2 -20 1 -7 -3 11 -3 23 -10 27
-17 6 -8 8 -7 8 2 0 7 4 11 9 8 5 -3 11 1 15 9 6 17 6 18 -12 6z"/>
<path d="M1920 278 c0 -10 27 -10 34 0 2 4 -4 8 -15 8 -10 0 -19 -4 -19 -8z"/>
<path d="M1970 281 c0 -5 7 -12 16 -15 14 -5 15 -4 4 9 -14 17 -20 19 -20 6z"/>
<path d="M1774 263 c2 -10 6 -17 10 -16 15 3 16 11 2 22 -12 10 -14 9 -12 -6z"/>
<path d="M918 263 c7 -3 16 -2 19 1 4 3 -2 6 -13 5 -11 0 -14 -3 -6 -6z"/>
<path d="M1610 260 c8 -5 20 -10 25 -10 6 0 3 5 -5 10 -8 5 -19 10 -25 10 -5
0 -3 -5 5 -10z"/>
<path d="M1012 210 c-7 -11 -8 -20 -3 -20 9 0 24 30 18 36 -1 2 -8 -6 -15 -16z"/>
<path d="M1873 213 c0 -9 4 -10 14 -2 7 6 13 12 13 14 0 1 -6 2 -13 2 -8 0
-14 -6 -14 -14z"/>
</g>
</svg>
