<?xml version="1.0" standalone="no"?>
<!DOCTYPE svg PUBLIC "-//W3C//DTD SVG 20010904//EN"
 "http://www.w3.org/TR/2001/REC-SVG-20010904/DTD/svg10.dtd">
<svg version="1.0" xmlns="http://www.w3.org/2000/svg"
 width="1264.000000pt" height="1265.000000pt" viewBox="0 0 1264.000000 1265.000000"
 preserveAspectRatio="xMidYMid meet">

<g transform="translate(0.000000,1265.000000) scale(0.100000,-0.100000)"
fill="#000000" stroke="none">
<path d="M0 6325 l0 -6325 6320 0 6320 0 0 6325 0 6325 -6320 0 -6320 0 0
-6325z m12060 3045 c-8 -5 -19 -10 -25 -10 -5 0 -3 5 5 10 8 5 20 10 25 10 6
0 3 -5 -5 -10z m-50 -19 c-12 -7 -2505 -1065 -5185 -2200 l-300 -127 -138
-305 c-75 -167 -159 -353 -186 -414 -27 -60 -97 -215 -155 -344 -58 -129 -106
-236 -106 -238 0 -1 1173 -4 2608 -5 1434 -1 2591 -3 2572 -5 -19 -2 -840 -50
-1825 -108 -984 -58 -1794 -107 -1800 -109 -5 -2 -163 -115 -350 -251 -187
-137 -554 -404 -815 -595 -440 -320 -916 -668 -1890 -1378 -211 -155 -386
-280 -387 -278 -2 2 294 535 657 1186 363 651 658 1185 655 1188 -2 2 -242
-10 -532 -27 -290 -17 -1324 -78 -2298 -136 -974 -57 -1804 -106 -1845 -109
-70 -5 -73 -5 -44 9 25 11 2708 1016 5209 1950 564 211 570 214 596 252 14 21
245 433 514 915 269 483 490 876 492 874 2 -2 -15 -43 -38 -92 -22 -49 -69
-152 -104 -229 -34 -77 -147 -327 -250 -555 -103 -228 -232 -513 -286 -634
-73 -161 -94 -217 -81 -214 17 5 5050 1887 5217 1951 88 34 125 45 95 28z"/>
<path d="M6170 6873 c-19 -8 -582 -247 -1250 -530 -668 -283 -1271 -539 -1340
-569 l-125 -53 1058 2 1059 2 310 555 c360 646 341 610 331 609 -5 0 -24 -7
-43 -16z"/>
<path d="M6485 5439 c-335 -21 -629 -38 -651 -38 l-41 -1 -252 -557 c-138
-306 -250 -558 -248 -560 2 -2 190 111 418 250 228 139 641 392 919 562 278
170 532 326 565 347 l60 38 -80 -1 c-44 -1 -354 -19 -690 -40z"/>
</g>
</svg>
